<?xml version="1.0" standalone="no"?>
<!DOCTYPE svg PUBLIC "-//W3C//DTD SVG 1.1//EN" "http://www.w3.org/Graphics/SVG/1.1/DTD/svg11.dtd">
<svg xmlns="http://www.w3.org/2000/svg">
<metadata>Generated by Fontastic.me</metadata>
<defs>
<font id="interflora" horiz-adv-x="512">
<font-face font-family="interflora" units-per-em="512" ascent="480" descent="-32"/>
<missing-glyph horiz-adv-x="512" />

<glyph glyph-name="back-arrow" unicode="&#97;" d="M199 356l0 113-199-199 199-199 0 117c142 0 242-46 313-145-28 142-114 284-313 313z"/>
<glyph glyph-name="hand-holding-up-a-flower" unicode="&#98;" d="M388 227c0 22-15 27-33 27l-90 0c-4 9-8 25-20 34-20 16-37 9-50 1-29-17-62-54-82-60-25-9-55-7-55-7l0-125c51 0 82-18 108-29 59-24 101-24 122-23 45 2 49 39 50 46 12 4 19 11 23 21 1 3 2 7 2 11 0 7-2 14-4 18 10 6 16 13 19 22 0 3 1 5 1 8 0 19-10 23-10 23 0 0 19 12 19 33z m-112-201l-28 0c0-7 0-13 1-20 0-1 1-3 2-4 1-2 3-2 5-2 0 0 0 0 0 0l14 1c4 0 6 3 6 7 0 6 0 12 0 18z m138 375c-1 1-2 1-3 2 1 0 2 1 3 2 25 18 38 42 26 59-13 18-40 13-65-6-1 0-2-1-3-2 0 2 0 3 0 4-1 9-3 18-7 26 0 0 0 0 0 0 0 1 0 2-1 2-6 16-18 25-31 24-1 0-2 0-3-1-12-2-20-14-24-30-1-8-2-18-1-28 1-2 1-3 1-4-1 1-2 1-3 2-28 12-56 11-65-8-8-19 10-41 38-53 1-1 2-1 3-1-1-1-2-2-3-2-25-19-38-43-25-60 10-15 32-14 53-1-5-14-12-32-18-53l28 0c4 11 8 22 11 31 7-16 18-26 32-25 21 2 31 29 28 59-1 2-1 3-1 4 1-1 2-1 3-2 28-12 56-11 65 8 8 20-10 41-38 53z m-66-30c-14-2-26 8-28 22-1 14 9 26 22 28 14 1 26-9 28-23 1-13-9-26-22-27z"/>
<glyph glyph-name="lock" unicode="&#99;" d="M425 305l-10 0 0 47c0 86-69 158-154 160-3 0-7 0-10 0-85-2-154-74-154-160l0-47-10 0c-15 0-28-15-28-35l0-234c0-20 13-36 28-36l338 0c15 0 28 16 28 36l0 234c0 20-13 35-28 35z m-137-152l0-71c0-8-7-15-15-15l-34 0c-8 0-15 7-15 15l0 71c-8 8-12 18-12 30 0 23 17 42 39 43 3 0 7 0 10 0 22-1 39-20 39-43 0-11-4-22-12-30z m61 152l-186 0 0 47c0 51 42 94 93 94 51 0 93-43 93-94z"/>
<glyph glyph-name="arrows" unicode="&#100;" d="M158 512l-60-60 196-196-196-196 60-60 256 256z"/>
<glyph glyph-name="arrows-1" unicode="&#101;" d="M345 424l-14-13 145-145-476 0 0-19 476 0-145-145 14-13 167 167z"/>
<glyph glyph-name="bouquet" unicode="&#102;" d="M406 433l0 70c0 5-4 9-9 9l-94 0c-5 0-9-4-9-9l0-12-77 0 0 12c0 5-3 9-8 9l-95 0c-5 0-8-4-8-9l0-70c0-27 20-51 47-55l0-31-30 0c-5 0-9-4-9-9 0-1 1-1 1-2l30-136c1-4 6-7 10-6 2 0 3 1 4 1l10 9 82-199c2-4 7-6 11-4 2 1 4 2 5 4l136 330c2 4 0 9-5 11-1 1-2 1-3 1l-36 0 0 31c27 4 47 28 47 55z m-94 61l50 0-50-26z m-3-99c9-9 20-15 32-17l0-31-76 0 0 10c20 3 38 18 44 38z m-15 34l-18 14 18 18z m-12 44l-20-19-27 20 47 0z m-65-8l77-57c-2-21-21-36-43-34-19 2-34 19-34 38 0 0 0 53 0 53z m-14-70c6-20 23-35 44-38l0-10-77 0 0 31c13 2 24 8 33 17z m-3 99l0-26-50 26z m-77-61l0 56 77-41 0-15c0-21-17-38-38-38-22 0-39 17-39 38z m36-215l-25 111 158 0z m223 111l-123-297-76 183 137 114z m-32 66c-21 0-38 17-38 38l0 16 77 40 0-56c0-21-18-38-39-38z"/>
<glyph glyph-name="boutique" unicode="&#103;" d="M504 71l-24 0 0 282c14 4 24 17 24 32l0 55c0 9-7 16-16 16l-464 0c-9 0-16-7-16-16l0-55c0-15 10-28 24-31l0-283-24 0c-5 0-8-3-8-7 0-4 3-8 8-8l496 0c4 0 8 4 8 8 0 4-4 7-8 7z m-15 314c0-2-1-4-1-6l-32 32 0 19 33-33z m-46-274l-46 46c-3 3-7 3-10 0-3-3-4-7-1-10 0 0 1-1 1-1l35-35-215 0 0 193 22 0 134-134c3-3 7-3 10 0 3 3 4 8 1 11 0 0-1 0-1 0l-123 124 215 0 0-194z m30 257c-9-1-17 6-17 15 0 0 0 1 0 1l0 6 21-22c-1 0-3 0-4 0z m-32 40l0-24c0-9-8-16-17-16-9 0-16 7-16 16l0 57 33 0z m-48-24c0-2-1-3-1-5l-32 32 0 19 33-33z m-33 6l21-22c-8-3-18 2-21 11 0 2 0 3 0 5l0 6z m33 28l-23 23 23 0z m-48-10l0-24c0-9-8-16-17-16-9 0-17 7-17 16l0 57 34 0z m-49-24c0-2 0-3 0-5l-33 32 0 19 33-33z m-33 6l22-22c-9-3-18 2-21 11 0 2 0 3 0 5l0 6z m33 28l-22 23 22 0z m-48-10l0-24c0-9-7-16-16-16-9 0-17 7-17 16l0 57 33 0z m-48-24c0-2 0-3 0-5l-33 32 0 19 33-33z m-33 6l22-22c-9-3-18 2-21 11 0 2-1 3-1 5l0 6z m33 28l-22 23 22 0z m-48-10l0-24c0-9-7-16-16-16-9 0-17 7-17 16l0 57 33 0z m-48-24c0-2 0-3-1-5l-32 32 0 19 33-33z m-33 6l22-22c-9-3-18 2-21 11-1 1-1 3-1 5z m33 28l-22 23 22 0z m-43-57c1 1 2 2 3 3 11-14 31-15 44-4 1 1 3 2 4 4 11-14 31-15 44-4 1 1 3 2 4 4 11-14 31-15 44-4 2 1 3 2 4 4 11-14 31-15 44-4 2 1 3 2 4 4 11-14 31-15 44-4 2 1 3 2 4 4 11-14 31-15 44-4 2 1 3 2 4 4 11-14 31-15 44-4 2 1 3 2 4 4 11-14 31-15 45-4 1 1 2 2 3 4 1-1 2-2 3-3 4-4 8-6 14-8l0-34-418 0 0 34c5 2 10 4 14 8z m-14-57l33 0 0-193-33 0z m48 0l97 0 0-233-97 0z m112-208l258 0 0-25-258 0z m282 344l0-22-23 23 22 0c0 0 1-1 1-1z m-466-55l0 55c0 0 0 1 1 1l32 0 0-57c0-9-7-16-16-16-1 0-1 0-1 0-9 0-16 8-16 17z m24-289l33 0 0-25-33 0z m121 95c-4 0-8-3-8-7l0-16c0-4 4-8 8-8 4 0 7 4 7 8l0 16c0 4-3 7-7 7z m281-30l-108 108c-3 3-8 3-10 0-3-3-3-8 0-10l108-109c3-3 7-3 10 0 3 3 4 8 1 11 0 0 0 0-1 0z m-281 126l-48 0c-4 0-8-3-8-7l0-64c0-4 4-8 8-8l48 0c4 0 7 4 7 8l0 64c0 4-3 7-7 7z m-8-64l-33 0 0 49 33 0z"/>
<glyph glyph-name="business" unicode="&#104;" d="M78 452c-4 0-9-2-12-6-4-3-6-8-6-13l0-274c0-11 8-19 18-19 43-10 115-9 164-60l0 287c0 3-1 7-3 9-40 66-118 65-161 76z m374-293l0 274c0 5-2 10-6 13-3 4-7 6-12 6-43-11-121-10-161-76-2-2-3-6-3-9l0-287c50 51 121 60 164 60 10 0 18 8 18 19z m42 229l-14 0 0-229c0-26-21-47-46-47-37 0-96-7-138-47 73 18 150 6 194-4 5-1 11 0 15 3 4 4 7 9 7 15l0 291c0 10-8 18-18 18z m-462-229l0 229-14 0c-10 0-18-8-18-18l0-291c0-6 3-11 7-15 4-3 10-4 15-3 44 10 121 22 194 4-42 40-102 47-138 47-25 0-46 21-46 47z"/>
<glyph glyph-name="calendar" unicode="&#105;" d="M486 478l-59 0 0 25c0 5-4 9-9 9l-60 0c-4 0-8-4-8-9l0-25-188 0 0 25c0 5-4 9-8 9l-60 0c-5 0-9-4-9-9l0-25-59 0c-5 0-9-4-9-9l0-460c0-5 4-9 9-9l460 0c5 0 9 4 9 9l0 460c0 5-4 9-9 9z m-119 17l43 0 0-51-43 0z m-265 0l43 0 0-51-43 0z m-68-34l51 0 0-26c0-5 4-8 9-8l60 0c4 0 8 3 8 8l0 26 188 0 0-26c0-5 4-8 8-8l60 0c5 0 9 3 9 8l0 26 51 0 0-77-444 0z m0-444l0 350 444 0 0-350z m290 299l-230 0 0-248 324 0 0 248z m-59-17l59 0 0-60-59 0z m59-137l-59 0 0 60 59 0z m-136 60l59 0 0-60-59 0z m0 77l59 0 0-60-59 0z m-77 0l60 0 0-60-60 0z m0-77l60 0 0-60-60 0z m60-137l-60 0 0 60 60 0z m76 0l-59 0 0 60 59 0z m77 0l-59 0 0 60 59 0z m77 0l-60 0 0 60 60 0z m0 77l-60 0 0 60 60 0z m0 137l0-60-60 0 0 60z"/>
<glyph glyph-name="cancel" unicode="&#106;" d="M256 512c-141 0-256-115-256-256 0-141 115-256 256-256 141 0 256 115 256 256 0 141-115 256-256 256z m141-332l-65-65-76 76-76-76-65 65 76 76-76 76 65 65 76-76 76 76 65-65-76-76z"/>
<glyph glyph-name="checked" unicode="&#107;" d="M256 512c-141 0-256-115-256-256 0-141 115-256 256-256 141 0 256 115 256 256 0 141-115 256-256 256z m-47-388l-113 113 38 38 75-75 169 169 38-38z"/>
<glyph glyph-name="circle" unicode="&#108;" d="M256 512c-141 0-256-115-256-256 0-141 115-256 256-256 141 0 256 115 256 256 0 141-115 256-256 256z m128-282l-102 0 0-102-52 0 0 102-102 0 0 52 102 0 0 102 52 0 0-102 102 0z"/>
<glyph glyph-name="coeur" unicode="&#109;" d="M511 351c-7 81-66 141-139 141-48 0-93-26-118-68-23 42-67 68-114 68-73 0-131-60-139-141-2-18 0-37 4-55 11-45 35-86 71-118l178-161 181 161c36 32 60 73 71 118 6 18 7 36 5 55z m-24-50c-9-42-32-79-65-108l-167-150-165 150c-33 29-56 66-65 108-5 15-6 31-5 47l0 1c7 71 57 124 120 124 47-1 89-30 106-74l9-22 9 22c18 44 61 74 108 74 62 0 112-53 119-125 2-16 0-32-4-47z m-329 131c-55 0-99-44-99-98 0-6 4-10 10-10 6 0 10 4 10 10 0 43 35 79 79 79 5 0 9 3 9 9 0 6-4 10-9 10z"/>
<glyph glyph-name="contact" unicode="&#110;" d="M512 97l0 318-177-159z m-256 88l-50 45-177-159 454 0-177 159z m227 256l-454 0 227-204z m-483-26l0-318 177 159z"/>
<glyph glyph-name="cross" unicode="&#111;" d="M504 469l-43 43-208-208-210 208-43-43 208-210-208-208 43-43 210 208 208-208 43 43-208 208z"/>
<glyph glyph-name="cursor" unicode="&#112;" d="M508 92l-176 176 132 52c6 2 9 7 9 13 0 5-4 10-9 12l-445 165c-6 2-11 1-15-3-4-4-5-10-3-15l164-445c2-6 7-9 13-9 6 0 11 3 13 8l53 136 177-177c2-3 6-4 9-4 4 0 8 1 10 4l68 68c5 5 5 14 0 19z m-78-58l-182 182c-2 3-6 4-9 4-1 0-2 0-3 0-5-1-8-4-10-8l-47-122-142 384 384-142-118-46c-5-1-8-5-9-10-1-4 1-9 4-12l181-181z"/>
<glyph glyph-name="delivery-truck" unicode="&#113;" d="M512 238l0 18c0 9-4 17-10 23l-97 97c-6 6-15 9-23 9l-49 0 0 19c0 13-11 24-25 24l-283 0c-14 0-25-11-25-24l0-166z m-150 115c0 2 2 4 4 4l18 0c1 0 2-1 2-1l76-73c2-2 2-4 1-6-1 0-2-1-3-1l-94 0c-2 0-4 2-4 4l0 73z m150-129l0-55c0-13-11-24-25-24l-26 0c-6 37-40 63-77 57-30-4-53-28-58-57l-134 0c-5 37-40 62-77 57-29-4-53-28-57-57l-33 0c-14 0-25 11-25 24l0 55z m-118-38c-29 0-52-23-52-51 0-28 23-51 52-51 28 0 51 23 51 51 0 28-23 51-51 51z m0-77c-15 0-26 12-26 26 0 14 11 26 26 26 14 0 25-12 25-26 0-14-11-26-25-26 0 0 0 0 0 0z m-269 77c-28 0-51-23-51-51 0-28 23-51 51-51 29 0 51 23 51 51 0 28-23 51-51 51z m0-77c-14 0-26 12-26 26 0 14 12 26 26 26 14 0 26-12 26-26 0-14-12-26-26-26 0 0 0 0 0 0z"/>
<glyph glyph-name="etoile" unicode="&#114;" d="M265 476l62-144 156-12c6 0 12-6 12-12 0-3-3-6-3-9l-119-101 33-154c0-6-3-12-9-15-3 0-6 0-9 0l-135 80-135-80c-6-3-12 0-15 3 0 3-3 6 0 9l34 154-117 101c-6 6-6 12-3 18 3 3 6 3 9 3l157 12 61 144c3 9 9 13 15 9 3-2 3-6 6-6z"/>
<glyph glyph-name="facebook" unicode="&#115;" d="M461 512l-410 0c-28 0-51-23-51-51l0-410c0-28 23-51 51-51l410 0c28 0 51 23 51 51l0 410c0 28-23 51-51 51z m-26-51l0-77-51 0c-15 0-26-10-26-26l0-51 77 0 0-77-77 0 0-179-76 0 0 179-52 0 0 77 52 0 0 64c0 49 41 90 89 90z"/>
<glyph glyph-name="google-plus" unicode="&#116;" d="M295 186c-6 7-12 14-18 20-7 6-13 12-20 17-7 5-13 10-18 15-5 5-10 10-13 15-4 5-5 10-5 16 0 7 2 14 7 20 5 7 10 13 17 19 7 6 14 13 20 20 7 7 13 17 18 28 4 12 7 26 7 41 0 18-4 35-12 52-8 16-20 29-34 39l41 0 42 24-135 0c-19 0-38-2-57-6-29-7-53-21-72-44-20-22-29-48-29-77 0-30 10-55 32-75 22-20 48-31 79-31 6 0 13 1 21 2 0-2-1-4-2-7-1-2-2-5-2-6-1-2-1-4-2-6 0-3 0-5 0-8 0-13 6-28 19-45-15-1-31-2-46-5-15-2-31-6-48-11-16-5-31-12-44-22-13-9-23-20-30-33-7-16-11-30-11-42 0-14 3-26 9-37 6-12 14-21 24-28 10-7 21-13 33-18 13-5 26-8 38-10 12-2 25-3 37-3 55 0 98 13 129 40 29 25 43 54 43 87 0 12-2 23-5 33-3 10-8 19-13 26z m-119 112c-10 0-20 3-30 8-9 5-17 12-24 21-6 8-12 18-17 28-5 11-9 22-11 32-2 11-4 21-4 31 0 20 6 37 16 51 11 14 25 21 44 21 14 0 26-4 37-13 11-8 20-19 26-32 6-13 11-26 15-40 3-14 5-27 5-39 0-21-5-37-14-50-9-12-23-18-43-18z m85-231c-5-10-13-17-23-23-9-5-20-9-31-12-11-2-22-4-34-4-13 0-27 2-39 5-13 3-26 8-38 14-11 6-21 15-28 26-8 11-11 23-11 37 0 12 3 23 8 33 6 10 13 17 21 23 9 6 19 11 31 14 11 4 22 6 33 8 11 1 21 2 32 2 7 0 12 0 16-1 1 0 4-3 9-6 5-4 9-6 10-7 2-1 5-4 10-7 5-4 8-6 10-8 2-2 5-4 8-8 4-3 7-7 8-9 2-3 4-6 7-9 2-4 4-8 5-11 1-3 2-7 3-11 1-4 2-8 2-13 0-12-3-24-9-33z m172 366l0 79-39 0 0-79-79 0 0-39 79 0 0-79 39 0 0 79 79 0 0 39z"/>
<glyph glyph-name="green-check" unicode="&#117;" d="M512 390l-318-319c-3-3-8-3-10 0l-182 181c-3 3-3 7 0 10l44 45c3 2 7 2 10 0l132-132 270 269c3 3 7 3 10 0l44-44c3-3 3-7 0-10z"/>
<glyph glyph-name="icon-time" unicode="&#118;" d="M492 356c-27 63-73 108-137 135-31 14-65 21-99 21-35 0-68-7-100-21-63-27-109-72-136-135-13-32-20-65-20-100 0-34 7-68 20-99 27-63 73-109 136-136 32-14 65-21 100-21 34 0 68 7 99 21 64 27 110 73 137 136 13 31 20 65 20 99 0 35-7 68-20 100z m-41-213c-20-34-48-62-83-82-34-20-72-30-112-30-31 0-60 6-88 18-27 12-51 28-71 48-20 20-36 44-48 72-12 27-18 57-18 87 0 41 10 78 30 113 20 34 48 62 82 82 34 20 72 30 113 30 40 0 78-10 112-30 35-20 63-48 83-82 20-35 30-72 30-113 0-40-10-78-30-113z m-179 116l0 144c0 9-8 16-16 16-9 0-16-7-16-16l0-147c0 0 1-1 1-2-1-5 1-9 4-13l84-83c5-6 16-6 21 0 7 6 6 16 0 22z"/>
<glyph glyph-name="icon-time-transport" unicode="&#119;" d="M328 295c-1 5-3 9-6 13l21 128c1 4-2 9-7 10l0 0c-5 1-10-2-11-6l-38-124c-9-4-15-14-15-25 0-15 12-28 28-28 3 0 6 1 8 1l78-40c5-2 10-1 12 3l1 0c2 4 1 10-2 13z m-42-4c0 8 6 14 14 14 8 0 14-6 14-14 0-7-6-14-14-14-8 0-14 7-14 14z m226 0c0-94-62-174-147-202l0 31c69 26 119 93 119 171 0 101-83 184-184 184-101 0-183-83-183-184 0-10 0-20 2-30l-29 0c-1 10-2 20-2 30 0 117 95 212 212 212 117 0 212-95 212-212z m-175-151l-65 65c-4 4-10 6-16 6l-33 0 0 12c0 10-7 17-16 17l-190 0c-10 0-17-7-17-17l0-111 344 0 0 12c0 6-3 12-7 16z m-28-2l-64 0c-1 0-2 1-2 3l0 48c0 2 1 3 2 3l12 0c1 0 2 0 2-1l51-49c2-1 1-4-1-4z m35-35l0-37c0-9-8-16-17-16l-18 0c-3 22-22 39-45 39-23 0-42-17-45-39l-90 0c-3 22-22 39-45 39-23 0-42-17-45-39l-22 0c-10 0-17 7-17 16l0 37z m-80-25c-19 0-34-16-34-35 0-19 15-34 34-34 19 0 35 15 35 34 0 19-16 35-35 35z m0-52c-9 0-17 8-17 17 0 10 8 17 17 17 10 0 17-7 17-17 0-9-7-17-17-17z m-180 52c-19 0-35-16-35-35 0-19 16-34 35-34 19 0 34 15 34 34 0 19-15 35-34 35z m0-52c-10 0-17 8-17 17 0 10 7 17 17 17 9 0 17-7 17-17 0-9-8-17-17-17z"/>
<glyph glyph-name="information-button" unicode="&#120;" d="M252 512c-139 0-252-113-252-252 0-138 113-251 252-251 138 0 251 113 251 251 0 139-113 252-251 252z m53-390c-13-5-23-9-32-11-6-4-17-4-26-4-14 0-27 4-36 10-8 7-13 17-13 30 0 4 0 9 0 15 0 4 3 11 3 17l17 58c2 6 2 10 4 15 0 4 2 8 2 13 0 6-2 12-4 14-2 3-9 5-17 5-5 0-9 0-13-2-7-3-11-5-13-5l4 17c11 5 20 9 30 11 11 2 19 4 28 4 15 0 28-4 36-10 9-9 13-17 13-30 0-2 0-7 0-13 0-6-2-13-4-17l-17-58c-2-4-2-10-5-15 0-6-2-10-2-12 0-9 2-13 5-15 4-2 8-5 17-5 4 0 8 0 12 3 5 2 9 2 11 4z m-4 232c-9-6-17-11-28-11-11 0-19 5-28 11-6 7-10 15-10 26 0 10 4 19 10 25 9 7 17 11 28 11 11 0 19-4 28-11 8-6 10-15 10-25 3-11-2-19-10-26z"/>
<glyph glyph-name="instagram" unicode="&#121;" d="M66 512l380 0c36 0 66-27 66-66l0-380c0-39-30-66-66-66l-380 0c-36 0-66 27-66 66l0 380c0 39 30 66 66 66z m307-57c-13 0-23-10-23-23l0-55c0-13 10-23 23-23l58 0c13 0 23 10 23 23l0 55c0 13-10 23-23 23z m81-159l-45 0c4-14 7-29 7-44 0-86-72-155-160-155-87 0-159 69-159 155 0 15 3 30 7 44l-47 0 0-217c0-11 9-20 20-20l357 0c11 0 20 9 20 20z m-197 61c-57 0-103-45-103-100 0-55 46-100 103-100 56 0 102 45 102 100 0 55-46 100-102 100z"/>
<glyph glyph-name="interface" unicode="&#122;" d="M437 75c100 100 100 262 0 362-100 100-262 100-362 0-100-100-100-262 0-362 100-100 262-100 362 0z m-273 220l58-57 126 126 45-45-126-126-45-45-102 102z"/>
<glyph glyph-name="international" unicode="&#65;" d="M469 398l-8-2-41-4-11-18-9 3-32 29-5 15-6 16-21 19-24 4 0-11 23-23 12-13-13-7-11 3-15 7 0 12-21 9-6-30-21-5 2-17 27-5 5 27 22-4 11-6 16 0 12-23 30-31-2-12-24 4-43-22-30-37-4-16-11 0-21 10-20-10 5-21 9 10 15 1-1-19 13-4 12-14 21 6 23-4 27-7 14-2 23-26 44-26-28-55-31-14-11-32-44-29-5-17c112 28 196 128 196 249 0 53-16 102-43 142z m-184-276l-18 35 17 35-17 6-19 19-43 9-14 30 0-18-6 0-37 50 0 41-27 44-43-8-28 0-15 10 19 14-19-4c-22-38-35-82-35-129 0-141 115-256 256-256 11 0 22 1 32 2l-2 31c0 0 11 46 11 48 0 1-12 41-12 41z m-190 307l46 7 21 11 23-7 38 2 13 21 19-3 45 4 13 14 18 12 25-4 9 1c-33 16-70 25-109 25-79 0-151-36-197-93l0 0z m172 58l26 14 17-10-25-18-23-3-10 7z m-78-3l12-4 15 4 8-14-35-9-17 10c1 0 17 10 17 13z"/>
<glyph glyph-name="left-quote" unicode="&#66;" d="M164 277c-12 4-25 5-37 5-19 0-35-4-48-9 12 43 41 118 97 126 6 1 10 5 11 10l12 44c1 4 1 8-1 11-2 3-6 5-10 6-3 1-7 2-12 2-68 0-135-72-164-173-16-60-21-150 20-206 23-32 56-49 100-50l0 0c53 0 101 36 115 87 8 31 5 63-11 91-15 27-41 47-72 56z m335-57c-16 28-41 48-72 57-13 4-25 5-38 5-19 0-35-4-47-9 12 43 40 118 97 126 5 1 9 5 10 10l13 44c1 4 0 8-2 11-2 3-5 5-9 6-4 1-9 2-13 2-68 0-135-72-164-173-16-60-21-150 20-206 23-32 56-49 99-50l1 0c53 0 101 36 115 87 9 31 5 63-10 90z"/>
<glyph glyph-name="less" unicode="&#67;" d="M500 290l-488 0c-6 0-12-6-12-12l0-42c0-7 6-12 12-12l488 0c6 0 12 5 12 12l0 42c0 6-6 12-12 12z"/>
<glyph glyph-name="map" unicode="&#68;" d="M460 276c-15-17-30-36-41-61-4-12-16-20-29-20-12 0-24 8-29 20-12 30-30 50-48 70-5 5-9 9-13 15-1 0-1-1-1-1-18-5-31-28-23-47 6-13 44-10 41-38-3-23 27-29 37-27 11 1 27-18 19-26-8-8-24-8-21-29 0-7 19-6 19-15 0-9-10-20-2-31 1-2 3-4 5-5-36-33-83-53-135-53-110 0-199 89-199 199 0 33 8 65 23 92 0-36 19-65 28-74 29-29 71-20 77-44 5-25-29-25-27-43 2-19 47-24 37-41-13-23 9-25 3-53-4-15 19-18 27-7 6 9 5 20 17 34 16 16 52 19 48 46-7 45-51 52-70 63-22 12-17 41-21 54-7 20-29-5-41 6-20 19 3 45 20 44 35-1 45-35 58-34 13 2 21 19 23 28 4 20-8 11-13 22-7 14 24 27 35 38 2 1 4 3 4 4 4 7-1 12-9 17-15 10-44 17-45 32-1 9 16 13 36 14 3 0 7 0 10 0 2 9 4 18 8 27-10 1-19 2-29 2-125 0-227-102-227-227 0-125 102-227 227-227 125 0 227 102 227 227 0 17-2 33-6 49z m-80 235c-64-6-108-68-97-131 11-64 71-84 100-156 3-7 12-7 15 0 32 80 102 95 102 179 0 64-55 115-120 108z m10-166c-31 0-57 26-57 58 0 32 26 57 57 57 32 0 58-25 58-57 0-32-26-58-58-58z"/>
<glyph glyph-name="medal-1" unicode="&#69;" d="M444 56l-67 153c-33-30-76-46-120-46l-2 0c-44 0-87 16-120 46l-67-153c-2-5 0-7 4-5l71 28c4 2 9 0 11-5 0 0 0 0 0 0l26-71c2-4 5-5 7 0l69 157 69-157c3-4 5-4 7 0l26 71c2 5 7 7 11 5 0 0 1 0 1 0l70-28c4-2 6 0 4 5z m-302 167c29-28 66-44 106-45 3 0 5-1 8-1 3 0 5 1 8 1 89 4 159 77 160 167-1 92-76 167-168 167-92 0-167-75-167-167 0-46 19-91 53-122z m114 259c76 0 137-62 137-137 0-67-49-125-115-135-14-3-29-3-44 0-66 10-115 68-115 135 0 75 62 137 137 137z m-29-256c46-11 94 5 124 41 42 53 35 130-18 172-52 43-129 35-172-17-42-52-34-129 18-172 14-11 30-20 48-24z"/>
<glyph glyph-name="medal-2" unicode="&#70;" d="M468 56l-68 164c-1 4-6 6-10 4-4-1-6-6-5-10l62-148-56 16c-4 1-8-1-10-4l-28-51-66 159c76 14 134 81 134 161 0 91-74 165-165 165-91 0-164-74-164-165 0-35 11-69 32-98l-80-193c-2-4 0-9 5-10 1-1 3-1 5-1l66 19 33-60c1-2 4-4 7-4l1 0c3 0 6 2 7 5l63 153c2 4 0 9-4 11-4 1-9-1-11-5l-57-137-28 51c-2 3-6 5-9 4l-56-16 70 169c31-33 74-52 120-52 5 0 10 0 15 0l73-178c2-3 4-5 8-5l0 0c3 0 6 2 7 4l33 60 66-19c5-1 9 2 10 6 1 2 1 4 0 5z m-360 291c0 82 66 149 148 149 82 0 148-67 148-149 0-81-66-148-148-148-81 0-148 67-148 148z m243 31c-1 3-4 5-7 6l-55 9-26 49c-2 4-7 6-11 4-1-1-2-2-3-4l-26-49-55-9c-4-1-7-5-7-10 1-1 2-3 3-4l39-40-8-55c-1-5 2-9 6-9 2-1 4 0 5 0l50 25 50-25c4-2 9 0 11 4 1 2 1 3 1 5l-9 55 39 40c3 2 4 5 3 8z m-56-39c-2-2-3-5-2-7l6-44-39 20c-3 1-5 1-8 0l-39-20 6 44c1 2 0 5-2 7l-31 31 44 7c2 1 4 2 6 5l20 39 20-39c2-3 4-4 6-5l44-7-31-31z m85 0c-4 1-9-2-9-7-9-63-67-108-130-99-63 8-108 66-99 130 8 63 66 107 129 99 52-7 93-48 100-99 0-5 5-8 9-7 4 0 8 4 7 9-9 65-65 114-131 114-73 0-132-59-132-132 0-72 59-132 132-132 0 0 0 0 0 0 66 0 122 50 131 115 1 4-3 9-7 9z"/>
<glyph glyph-name="menu-button" unicode="&#71;" d="M0 85l512 0 0 57-512 0z m0 142l512 0 0 57-512 0z m0 199l0-57 512 0 0 57z"/>
<glyph glyph-name="mon-compte" unicode="&#72;" d="M256 262c57 0 103 56 103 125 0 69-15 125-103 125-88 0-103-56-103-125 0-69 46-125 103-125z m194-186c-1 120-17 154-138 176 0 0-17-22-56-22-40 0-57 22-57 22-119-22-135-55-138-173 0-9 0-10 0-8 0-2 0-6 0-13 0 0 29-58 195-58 166 0 195 58 195 58 0 4 0 7 0 9-1 3-1 6-1 9z"/>
<glyph glyph-name="nature" unicode="&#73;" d="M511 267c-5 29-23 48-55 56-40 9-89-3-148-36 74 42 110 87 109 135 0 29-14 49-40 60-29 13-56 6-81-21-27-30-40-78-40-144 0 86-21 139-63 162-27 15-52 12-75-7-26-22-31-50-16-86 15-36 49-69 101-99-73 42-129 51-170 26-26-16-37-38-32-66 4-30 22-49 54-58 39-10 89 2 148 36-73-43-109-88-108-136 2-29 16-49 43-60 30-12 57-4 81 25 13 16 23 39 28 66l16 0c11-54 35-86 73-94 27-6 50 2 66 25 23 30 19 65-9 104-19 25-47 49-85 70 73-42 130-51 170-26 27 16 38 39 33 68z m-232-34c-7-7-14-10-23-10-9 0-17 3-23 10-6 7-9 14-9 23 0 18 14 32 32 32 9 0 16-3 23-9 7-6 10-14 10-23 0-9-3-16-10-23z"/>
<glyph glyph-name="next" unicode="&#74;" d="M387 266l-241 242c-6 5-15 5-21 0-6-6-6-15 0-21l231-231-231-231c-6-6-6-15 0-21 3-3 7-4 10-4 4 0 8 1 10 4l242 242c6 5 6 15 0 20z"/>
<glyph glyph-name="panier" unicode="&#75;" d="M511 372c-2 2-4 3-7 3l-308 0-3 17c-2 11-11 18-23 18l-23 0c-4 0-8-3-8-8 0-5 4-8 8-8l23 0c4 0 6-2 7-5l37-193c2-7 5-14 9-20l-12-10c-5 4-11 5-17 5-19 0-37-14-40-33-2-9 1-19 7-26 5-7 14-11 23-11 19 0 36 15 40 34 1 6 0 12-2 18l12 11c10-6 21-10 32-9l135 0c-4-5-7-11-8-17-2-9 1-19 7-26 6-7 14-11 23-11 19 0 37 15 40 34 2 9-1 18-6 26-6 6-15 10-24 10l-167 0c-18 0-32 11-35 28l-2 9 213 0c24 0 46 18 50 42l21 115c0 3-1 5-2 7z m-67-222c3-4 4-8 3-12-2-11-13-20-23-20-5 0-9 2-11 5-3 3-4 8-3 12 2 11 12 20 23 20 4 0 8-2 11-5z m-236-12c-2-11-13-20-24-20-4 0-8 2-10 5-3 3-4 8-3 12 2 11 12 20 23 20 4 0 8-2 11-5 2-4 3-8 3-12z m268 115c-3-16-18-29-34-29l-216 0-26 134 294 0z m-117-10c0 0 1 0 1 0 4 0 7 3 8 7l14 80c1 4-2 9-7 9-4 1-8-2-9-6l-14-80c-1-5 2-9 7-10-1 0-1 0 0 0z m35 0c5-1 9 2 10 7l14 80c0 4-3 8-8 9-4 0-8-2-9-6l-14-80c-1-5 2-9 7-10z m35 0c5-1 9 2 10 7l14 80c1 4-2 9-7 9-4 1-9-2-9-6l-15-80c0-5 3-9 7-10z m-177 0c5-1 9 2 10 7l14 80c1 4-2 9-7 9-4 1-9-2-10-6l-14-80c0-5 3-9 7-10z m36 0c4-1 9 2 9 7 0 0 0 0 0 0l14 80c1 4-2 9-6 9-5 1-9-2-10-6l-14-80c-1-5 2-9 7-10z m35 0c5-1 9 2 10 7l14 80c1 4-2 9-7 9-5 1-9-2-10-6l-14-80c0-5 3-9 7-10z m-156 62c0 4-4 8-8 8l-124 0c-5 0-8-4-8-8 0-5 3-9 8-9l124 0c4 0 8 4 8 9z m18-107c0 5-4 9-8 9l-89 0c-5 0-8-4-8-9 0-4 3-8 8-8l89 0c4 0 8 4 8 8z m-9 53c0 5-4 9-8 9l-107 0c-4 0-8-4-8-9 0-4 4-8 8-8l107 0c4 0 8 4 8 8z m-18 107c0 4-3 8-8 8l-142 0c-4 0-8-4-8-8 0-5 4-9 8-9l142 0c5 0 8 4 8 9z"/>
<glyph glyph-name="people" unicode="&#76;" d="M256 262c57 0 103 56 103 125 0 69-15 125-103 125-88 0-103-56-103-125 0-69 46-125 103-125z m194-186c-2 120-17 154-138 176 0 0-17-22-56-22-40 0-56 22-56 22-119-21-136-55-138-172 0-10-1-11-1-9 0-3 0-6 0-13 0 0 29-58 195-58 166 0 194 58 194 58 0 4 0 7 0 9 1 0 0 1 0 9z"/>
<glyph glyph-name="pinterest" unicode="&#77;" d="M405 459c-36 34-84 53-138 53-81 0-131-33-159-61-34-35-53-81-53-126 0-57 23-101 63-117 3-1 6-2 8-2 9 0 15 6 18 14 1 6 4 18 5 23 3 11 1 16-5 24-12 13-17 30-17 51 0 62 46 128 132 128 69 0 111-38 111-101 0-39-8-76-24-103-10-19-29-41-58-41-13 0-24 5-31 14-7 9-9 20-6 31 3 13 7 27 11 40 7 24 14 46 14 64 0 31-19 51-47 51-36 0-64-36-64-82 0-16 3-32 9-46-4-20-30-133-36-154-3-12-20-111 9-119 33-8 62 87 65 98 3 9 11 42 16 63 16-15 41-26 66-26 47 0 89 21 118 59 29 37 45 89 45 146 0 44-19 88-52 119z"/>
<glyph glyph-name="plus" unicode="&#78;" d="M512 219l-219 0 0-219-74 0 0 219-219 0 0 74 219 0 0 219 74 0 0-219 219 0z"/>
<glyph glyph-name="red-cross" unicode="&#79;" d="M512 461l-51 51-205-205-205 205-51-51 205-205-205-205 51-51 205 205 205-205 51 51-205 205z"/>
<glyph glyph-name="search" unicode="&#80;" d="M495 46l-121 126c31 38 48 85 48 133 0 114-92 207-206 207-114 0-207-93-207-207 0-114 93-206 207-206 43 0 83 12 118 38l122-128c6-5 12-8 20-8 7 0 14 3 19 7 11 10 11 27 0 38z m-279 412c84 0 152-68 152-153 0-84-68-152-152-152-85 0-153 68-153 152 0 85 68 153 153 153z"/>
<glyph glyph-name="technology" unicode="&#81;" d="M362 512l-220 0c-21 0-38-17-38-38l0-444c0-21 17-38 38-38l218 0c21 0 38 17 38 38l0 444c2 21-15 38-36 38z m-163-23l108 0c2 0 6-4 6-9 0-6-2-10-6-10l-108 0c-4 0-6 4-6 10 0 5 2 9 6 9z m53-461c-13 0-24 12-24 25 0 13 11 25 24 25 13 0 25-12 25-25 0-13-12-25-25-25z m120 84l-239 0 0 336 237 0c2 0 2-336 2-336z"/>
<glyph glyph-name="telephone" unicode="&#82;" d="M501 107l-79 79c-16 16-42 16-59-1l-39-39c-3 1-6 2-8 4-25 14-60 33-96 69-36 37-56 71-69 96-2 3-3 6-5 8l27 27 13 13c16 16 17 42 1 58l-79 79c-16 16-42 15-58-1l-22-23 0 0c-7-10-14-21-18-33-5-11-7-22-9-32-10-87 30-166 137-273 149-149 268-138 273-137 12 1 22 4 33 8 12 5 23 11 33 18l0 0 22 22c17 16 17 43 2 58z"/>
<glyph glyph-name="time" unicode="&#83;" d="M469 357c7 0 14 3 19 8 11 11 11 27 0 38l-34 34c-10 10-27 10-38 0-8-8-9-21-5-31l-14-13c-30 25-67 42-107 48l0 20 17 0c9 0 17 8 17 17l0 16c0 10-8 18-17 18l-102 0c-9 0-17-8-17-18l0-16c0-9 8-17 17-17l17 0 0-20c-40-6-77-24-107-49l-14 14c5 10 3 23-5 31-11 10-28 10-38 0l-34-34c-11-11-11-28 0-38 5-5 12-8 19-8 6 0 12 2 17 6l14-14c-25-36-40-80-40-127 0-123 100-222 222-222 122 0 222 99 222 222 0 47-15 91-40 127l15 15c4-5 10-7 16-7z m-230 104l34 0 0-18c0 0-1 0-1 0-5 0-11 1-16 1-5 0-11-1-16-1 0 0-1 0-1 0z m-167-86l18 18 12-12c-6-6-12-12-17-18z m372-153c0-52-21-99-55-132 0-1 0-1 0-1 0 0-1 0-1 0-34-34-80-55-132-55-52 0-98 21-132 55 0 0-1 0-1 0 0 0 0 0 0 1-34 34-55 80-55 132 0 51 21 98 55 132 0 0 0 0 0 1 0 0 1 0 1 0 34 34 81 55 132 55 52 0 98-21 132-55 0 0 1 0 1 0 0-1 0-1 0-1 34-34 55-81 55-132z m-17 141c-5 6-11 12-17 18l12 12 18-18z m-26-133l25 0c-2 41-18 78-44 106l-17-18c-2-1-4-2-6-2-3 0-5 1-6 2-4 4-4 9 0 12l17 18c-28 26-65 42-105 44l0-25c0-5-4-9-9-9-5 0-8 4-8 9l0 25c-41-2-78-18-106-44l18-18c3-3 3-8 0-12-2-1-4-2-6-2-3 0-5 1-6 2l-18 18c-26-28-42-65-44-106l25 0c5 0 8-3 8-8 0-5-3-9-8-9l-25 0c2-40 18-77 44-105l17 17c4 4 9 4 13 0 3-3 3-8 0-12l-18-18c28-25 65-41 106-43l0 25c0 4 3 8 8 8 5 0 9-4 9-8l0-25c40 2 77 18 105 43l-17 18c-4 4-4 9 0 12 3 4 8 4 12 0l17-17c26 28 42 65 44 105l-25 0c-5 0-8 4-8 9 0 5 3 8 8 8z m-145-42c-19 0-34 15-34 34 0 16 11 29 26 33l0 78c0 4 3 8 8 8 5 0 9-4 9-8l0-78c14-4 25-17 25-33 0-19-15-34-34-34z m0 51c-9 0-17-8-17-17 0-10 8-17 17-17 9 0 17 7 17 17 0 9-8 17-17 17z"/>
<glyph glyph-name="transport" unicode="&#84;" d="M190 198c-24 0-43-20-43-43 0-24 19-43 43-43 23 0 42 19 42 43 0 23-19 43-42 43z m0-65c-12 0-22 10-22 22 0 12 10 21 22 21 12 0 21-9 21-21 0-12-9-22-21-22z m322 96l0-45c0-12-9-21-21-21l-22 0c-4 27-27 48-56 48-28 0-52-21-56-48l-111 0c-4 27-28 48-56 48-29 0-52-21-56-48l-28 0c-11 0-20 9-20 21l0 45z m-99-31c-23 0-42-20-42-43 0-24 19-43 42-43 24 0 43 19 43 43 0 23-19 43-43 43z m0-65c-11 0-21 10-21 22 0 12 10 21 21 21 12 0 22-9 22-21 0-12-10-22-22-22z m91 142l-81 80c-5 5-12 8-19 8l-41 0 0 16c0 11-10 20-21 20l-236 0c-11 0-20-9-20-20l0-4-84-9 148-20-150-15 150-21-150-13 86-16 0-40 426 0 0 15c0 7-3 14-8 19z m-35-3l-79 0c-2 0-3 2-3 4l0 60c0 2 1 3 3 3l15 0c1 0 2 0 2 0l64-61c2-2 0-6-2-6z"/>
<glyph glyph-name="twitter" unicode="&#85;" d="M512 415c-19-9-39-14-60-17 22 13 38 34 46 58-21-12-43-21-67-25-40 42-106 44-148 4-28-25-39-64-31-100-84 4-163 44-216 110-28-48-14-110 32-140-16 0-33 5-47 13l0-2c0-50 35-93 84-103-9-2-18-3-28-3-6 0-13 0-20 2 14-43 54-72 98-73-37-29-83-45-130-45-8 0-17 0-25 1 48-31 104-47 161-47 193 0 299 160 299 299l-1 13c21 15 39 34 53 55z"/>
<glyph glyph-name="zoom-in" unicode="&#86;" d="M238 348c-39 0-70-32-70-70 0-39 31-70 70-70 39 0 70 31 70 70 0 38-31 70-70 70z m34-87l-21 0 0-20c0-8-6-14-13-14-7 0-13 6-13 14l0 20-21 0c-7 0-13 6-13 13 0 8 6 14 13 14l21 0 0 20c0 8 6 14 13 14 7 0 13-6 13-14l0-20 21 0c7 0 13-6 13-14 0-7-6-13-13-13z m-16 251c-141 0-256-115-256-256 0-141 115-256 256-256 141 0 256 115 256 256 0 141-115 256-256 256z m129-378c-4-4-10-6-15-6-5 0-11 2-15 6l-58 59c-17-12-37-19-59-19-57 0-104 46-104 104 0 57 47 103 104 103 57 0 104-46 104-103 0-21-6-40-16-56l59-59c8-7 8-20 0-29z"/>
<glyph glyph-name="dromcom" unicode="&#87;" d="M460 276c-15-17-30-36-41-61-4-12-16-20-29-20-12 0-24 8-29 20-12 30-30 50-48 70-5 5-9 9-13 15-1-1-1-2-1-3-18-5-31-28-23-47 6-13 44-10 41-38-3-23 27-29 37-28 11 2 27-17 19-25-8-8-24-9-21-30 0-6 19-5 19-14 0-10-10-20-2-31 1-2 3-4 5-6-37-33-85-52-135-52-110 0-199 89-199 199 0 33 8 65 23 94 0-36 19-65 28-74 29-29 71-20 77-44 5-25-29-25-27-43 2-19 47-24 37-41-13-23 9-25 3-53-4-15 19-18 27-7 6 9 5 20 18 34 15 16 51 19 47 46-7 45-51 52-70 63-22 12-16 41-21 54-7 20-29-5-41 6-20 18 3 45 20 44 35-1 45-35 58-34 13 2 21 19 23 28 5 20-8 11-13 22-7 14 24 27 35 38 2 1 3 2 4 4 4 7-1 12-9 17-15 10-44 17-45 32-1 9 16 13 36 14 3-1 7-5 10-7 2 9 4 18 8 27-10 1-19 2-29 2-125 7-227-95-227-220 0-125 102-227 227-227 125 0 227 102 227 227 0 16-2 33-6 49z m-80 231c-64-2-108-64-97-127 12-64 71-84 100-156 1-3 4-5 8-5 3 0 6 2 7 5 32 80 102 95 102 179-1 30-15 58-38 78-22 19-52 29-82 26z m10-167c-31 0-57 26-57 58 0 32 26 58 57 58 32 0 58-26 58-58-2-30-27-53-58-53z"/>
<glyph glyph-name="livraisonexpress" unicode="&#88;" d="M385 461c-8 5-19 2-23-6l-18-30 60-35 17 30c5 8 2 19-6 24z m-260 0l-30-17c-8-5-11-16-6-24l17-30 60 35-18 29c-2 4-6 7-10 9-4 1-9 0-13-2z m131-27c11 0 21-1 32-2l0 28 22 0 0 36c0 9-7 16-16 16l-76 0c-9 0-16-7-16-16l0-36 22-2 0-26c11 2 21 2 32 2z m19-251c-8-7-23-2-34 10-12 13-15 28-7 35 8 8 77 46 98 49-5-21-49-86-57-94z m-19 233c-115 0-208-93-208-208 0-115 93-208 208-208 115 0 208 93 208 208 0 115-93 208-208 208z m0-377c-93 0-169 76-169 169 0 93 76 169 169 169 93 0 169-76 169-169 0-93-76-169-169-169z"/>
<glyph glyph-name="favorite-half-noir" unicode="&#89;" d="M513 314l-185 16-73 172 0-4-71-168-184-16 140-121-42-180 157 95 159-95 1-1-42 181z m-100-300l-156 95 0 388 70-167 0-1 184-15-139-121 0 0z"/>
<glyph glyph-name="clickandcollect" unicode="&#90;" d="M504 289l-233 200c-9 8-22 8-30 0l-233-200c-7-5-10-14-9-23 2-8 8-15 16-18 8-3 17-1 23 5l218 188 218-187c9-9 24-8 32 2 4 5 6 11 6 17 0 6-3 12-8 16z m-248-10c-21 0-40-12-48-32-9-20-4-42 11-57 15-15 37-20 57-11 20 8 32 27 32 48 0 29-23 52-52 52z m8 129c-5 4-11 4-16 0l-175-151c-3-3-4-6-4-9l0-219c0-3 1-6 3-8 3-2 6-4 9-4l350 0c3 0 6 2 9 4 2 2 3 5 3 8l0 219c0 3-1 6-4 9z m-2-348c-2-3-6-5-9-5-4 0-7 2-9 5-10 11-90 116-90 167 0 55 44 99 99 99 54 0 99-44 99-99 3-51-78-155-87-167z"/>
</font>
</defs>
</svg>
