<svg id="Calque_1" data-name="Calque 1" xmlns="http://www.w3.org/2000/svg" viewBox="0 0 150.4 104" preserveAspectRatio="xMinYMid"><defs><style>.cls-1{fill:none}.cls-2{fill:#d0b04e}.cls-3{fill:#cdad57}.cls-4,.cls-5{fill:#858585;opacity:.3}.cls-5{fill:#e9e9e9}.cls-6{opacity:.22}.cls-7{fill:#e50858}.cls-8{fill:#fff}.cls-9{opacity:.3}.cls-10{clip-path:url(#clip-path)}.cls-11{fill:#dde0e0}.cls-12{opacity:.22}.cls-13{clip-path:url(#clip-path-2)}.cls-14{clip-path:url(#clip-path-3)}.cls-15{fill:#db6389}.cls-16{fill:#353839}</style><clipPath id="clip-path" transform="translate(-18.03 -18.35)"><path class="cls-1" d="M134.37 106.04h2.87v7.3h-2.87z"/></clipPath><clipPath id="clip-path-2" transform="translate(-18.03 -18.35)"><path class="cls-1" d="M126.08 104.9h19.48v1.99h-19.48z"/></clipPath><clipPath id="clip-path-3" transform="translate(-18.03 -18.35)"><path class="cls-1" d="M125.1 101.32h11.75v4.7H125.1z"/></clipPath></defs><path d="M68.56 40.54c0-.11-.07-.15-.19-.15h-.2v.52h.08v-.22h.09l.14.22h.09l-.15-.23c.08 0 .14 0 .14-.14m-.31.08v-.16h.11s.11 0 .11.07-.06.09-.13.09zm.09-.43a.46.46 0 1 0 .47.46.46.46 0 0 0-.47-.46m0 .84a.38.38 0 0 1 0-.76.38.38 0 0 1 0 .76M28.13 45.32v-2.93a1.76 1.76 0 0 0-.72-1.6 3.25 3.25 0 0 0-3.24.49v-.81h-.49a3.19 3.19 0 0 1-1.68.68v.33c.18 0 .63.13.66.48v3.36c0 .39-.51.55-.88.58v.38a24.82 24.82 0 0 1 3.34 0v-.38c-.37 0-.88-.27-.88-.58v-3.21a1.53 1.53 0 0 1 1.76-.67 1.08 1.08 0 0 1 .61.94v2.94c0 .39-.51.55-.88.58v.38a24.67 24.67 0 0 1 3.33 0v-.38c-.37 0-.88-.27-.88-.58m3.83.24c-.44 0-.52-.57-.52-.57v-3.83h1.21v-.51h-1.26V39.2H31a3.54 3.54 0 0 1-.78.91 7.46 7.46 0 0 1-1 .7v.35H30V45a1.27 1.27 0 0 0 1.45 1.34 1.48 1.48 0 0 0 1.41-.77l-.35-.25a.62.62 0 0 1-.54.23m4.85-.25c-1.32-.11-1.61-.88-1.61-.88l3.44-2.79-.16-.28a1.21 1.21 0 0 1-.43-.2 3 3 0 0 0-2.6-.58 2.93 2.93 0 0 0 .91 5.77 3.13 3.13 0 0 0 2.29-1.18l-.27-.34a2 2 0 0 1-1.57.48m-1.89-3.1c.13-.68.29-1 .88-1.23a.93.93 0 0 1 1.11.42c.13.2.38.65.23.79L35 43.9a5.15 5.15 0 0 1-.07-1.69m7.56-1.62a1.83 1.83 0 0 0-1.06 1.18v-1.3H41a3.19 3.19 0 0 1-1.67.68v.33c.17 0 .63.13.65.48v3.36c0 .39-.5.55-.88.58v.38a23.93 23.93 0 0 1 3.28 0v-.38c-.37 0-.88-.27-.88-.58v-2.64a1.29 1.29 0 0 1 .4-.87c.2-.19.52 0 .73.16a.79.79 0 0 0 .93-.28.7.7 0 0 0-.08-.85.94.94 0 0 0-1-.25m19.15 0a1.83 1.83 0 0 0-1.06 1.18v-1.3h-.43a3.19 3.19 0 0 1-1.68.68v.33c.18 0 .63.13.66.48v3.36c0 .39-.5.55-.88.58v.38a23.93 23.93 0 0 1 3.28 0v-.38c-.37 0-.88-.27-.88-.58v-2.64a1.29 1.29 0 0 1 .4-.87c.2-.19.53 0 .73.16a.79.79 0 0 0 .93-.28.7.7 0 0 0-.08-.85.94.94 0 0 0-1-.25m-10.86 4.73V38.2h-.51a3.12 3.12 0 0 1-1.67.68v.33c.17 0 .63.13.66.48v5.63c0 .39-.51.55-.88.58v.38a23.93 23.93 0 0 1 3.28 0v-.38c-.37 0-.88-.27-.88-.58m-1.42-7a.88.88 0 0 0 .44-1 1.34 1.34 0 0 0-.93-.69 3.17 3.17 0 0 0-3.31 1.29c-.77.89-.62 2.18-.66 3.24H44v.48h.89v3.68c0 .39-.51.55-.88.58v.38a23.5 23.5 0 0 1 3.25 0v-.38c-.37 0-.88-.27-.88-.58v-3.68h1.14v-.48h-1.15a15 15 0 0 1 .24-3.41c.29-.47.5-.43.87-.43s.65.6 1 .89a.9.9 0 0 0 .85.12m5.53 2.09a3 3 0 0 0-3.12 3 3.13 3.13 0 0 0 6.25 0 2.91 2.91 0 0 0-3.13-3m0 5.44c-.93 0-1.48-1.09-1.48-2.48s.54-2.53 1.48-2.52 1.48 1.13 1.49 2.52-.51 2.48-1.49 2.48m13-.31c-.26 0-.4-.16-.4-.74v-2.93s0-1.48-2.16-1.48c-1.82 0-2.33 1.12-2.27 1.53a.52.52 0 0 0 .51.39c.49 0 .79-.61 1.06-1s.52-.46.74-.45a.83.83 0 0 1 .69.8v1s-.28.11-.63.21c-.52.16-1.15.3-1.29.37A1.79 1.79 0 0 0 62.93 45a1.47 1.47 0 0 0 1.6 1.35 2.44 2.44 0 0 0 1.59-.71 1.46 1.46 0 0 0 1.23.73 1.53 1.53 0 0 0 1.34-1.08l-.24-.12s-.29.41-.56.42m-1.83-1.1c0 .2.15 1-.91 1-.69 0-.71-.64-.72-.9 0-1.17 1.63-1.33 1.63-1.33zm-48-7.3v.38c.37 0 .88.26.88.58v7.21c0 .39-.5.55-.88.58v.38a25.71 25.71 0 0 1 3.4 0v-.42c-.37 0-.88-.27-.88-.58V38.1c0-.38.51-.55.89-.57v-.38a27.55 27.55 0 0 1-3.4 0M55.29 29.36a.18.18 0 0 0 .17-.13 11.65 11.65 0 0 1 1.41-3.14.19.19 0 0 0-.06-.24.16.16 0 0 0-.23.06 13.37 13.37 0 0 0-1.45 3.24.17.17 0 0 0 .12.21m25.79-.6a.18.18 0 0 0-.22-.11.16.16 0 0 0-.11.21 13.23 13.23 0 0 1-1.67 11.58.16.16 0 0 0 0 .24.17.17 0 0 0 .1 0 .17.17 0 0 0 .14-.07A13.62 13.62 0 0 0 81 28.73m-21.46-5.85a.3.3 0 0 0 .11 0A13.24 13.24 0 0 1 73.81 21a.17.17 0 1 0 .15-.31 13.59 13.59 0 0 0-14.53 1.9.16.16 0 0 0 0 .24.16.16 0 0 0 .13.06M81.9 45.69c0-.11-.06-.15-.19-.15h-.2v.52h.08v-.23h.1l.14.23h.09l-.15-.23a.13.13 0 0 0 .13-.14m-.31.08v-.16h.11c.06 0 .12 0 .12.07s-.06.09-.13.09zm.1-.43a.46.46 0 1 0 0 .92.46.46 0 1 0 0-.92m0 .84a.38.38 0 1 1 .37-.38.37.37 0 0 1-.37.38" transform="translate(-18.03 -18.35)"/><path d="M79.35 27.09a2.38 2.38 0 0 1-1.45.26l-.45-.05h-.19a2 2 0 0 0 .9-1.26 4.48 4.48 0 0 0 1.19.38c.43.09.85.07 1 .15-.33.11-.58.34-1 .55m-3.79-2.63a6 6 0 0 1-1.08.09c-.47 0-1 .08-1.11.08s-.19-.21.31-.3a3.24 3.24 0 0 0 1.65-.67c.39-.39.27-1.19.42-1.19s-.06.82.59 1c-.65.39-.34.91-.78 1M72 27.92c-1.16.67-1.14 1.2-1.18 1.31s-.52-.2-.5-.42a8.76 8.76 0 0 1 .19-1 2.7 2.7 0 0 1 .31-1 4.8 4.8 0 0 0 .92-.43c.27-.2.38-.66.49-.66s-.1.8.31 1.13 1.38.45 1.37.54a4.41 4.41 0 0 0-1.91.56m.81 7.84c-.08.21-.79-.2-2.48-1.25-1.48-.93-2.11-1.24-2-2.15A1.69 1.69 0 0 1 69.62 31c.27-.05.37 0 .69.2s.5.37.41.42a1.38 1.38 0 0 0-.72 1.5c.38.87 2.89 2.43 2.8 2.64M68.67 34a9.24 9.24 0 0 1-2.1.49c-1 .15-1.36.28-1.34.1s.7-.13 1.46-.53.92-.92 1.08-.94.06 0 .34.36.58.43.56.52m-12-11a.88.88 0 0 1-.91-.21c-.06-.06 0-.13.09-.09a.7.7 0 0 0 .41.07.89.89 0 0 1 0-.48.65.65 0 0 1 .21-.27c.08 0 .11 0 .07.09a.58.58 0 0 0-.11.26c0 .24.22.29.36.17a.89.89 0 0 0 .21-.41c0-.11.11-.06.12 0s0 .72-.48.85m-1.21-1.7a.92.92 0 0 1-.91-.23c-.06-.06 0-.14.09-.09a.74.74 0 0 0 .4.08 1 1 0 0 1 0-.5.76.76 0 0 1 .39-.34c.1 0 .13.07.07.09a.42.42 0 0 0-.27.35c0 .24.21.29.36.17a.75.75 0 0 0 .2-.41c0-.1.12-.06.12 0s.05.72-.48.86m27.64 4.72a9.32 9.32 0 0 0-1-.54 5.74 5.74 0 0 0-2-.64c-.68-.15-.5-.29-1.52-.57a4.59 4.59 0 0 0-1.34-.25c.25-.78.75-.35 1-.4s.36-.18.35-.53a1.28 1.28 0 0 1 .21-.68l.21-.08v-.12a1.4 1.4 0 0 1-.19-.48c0-.3.08-.52 0-.63-.88-.27-2.6.55-2.43.32 1.36-.93 3.11-.87 2.76-1.08s-.37-.47-1-.92a1.72 1.72 0 0 0-1.22-.25c.09-.15.31-.56.23-.77s-1.59.11-2.6.14a4.52 4.52 0 0 1-1.61-.2 1.11 1.11 0 0 0 .84.56A3.59 3.59 0 0 0 75 19l.1.15a2.47 2.47 0 0 1-.8.09 3.38 3.38 0 0 1-1.08-.24 1.71 1.71 0 0 0 1 .53 2.46 2.46 0 0 0 1.08-.06l.1.14a2.13 2.13 0 0 1-1.71-.08.87.87 0 0 0 .68.44 2 2 0 0 0 .87 0 1.73 1.73 0 0 0-.26.73 3.8 3.8 0 0 0-.11.62c-.16.67-.88 1.21-.77 1.28a6.78 6.78 0 0 0 1.3-.56 2.51 2.51 0 0 1-.4 1.33c-.41.51-.91.41-1.61.6-.39.1-.5.18-.74.15a3.43 3.43 0 0 0-1.26.06c-.58.16-1.26.58-1.63.67s-1.43.17-1.87.32l-.33.11a2.84 2.84 0 0 1-.7.19 1.53 1.53 0 0 1-.46 0 3.36 3.36 0 0 0-1-.12 6 6 0 0 0-1.35.25 10.19 10.19 0 0 1-1.85.44 2.56 2.56 0 0 1-1.13-.3 2.2 2.2 0 0 0-1.09.06 4.47 4.47 0 0 1-.51-.43c-.22-.26-.23-.74-.54-1.09a1.47 1.47 0 0 1-.35-1.1 2.1 2.1 0 0 0 0-.75c-.07-.35-.29-.51-.34-.49a.85.85 0 0 0 0 .6 3.08 3.08 0 0 1 .05 1c0 .19.12.52.09.52a.77.77 0 0 1-.33-.54 3 3 0 0 0-.2-1.14 2.32 2.32 0 0 1-.25-.89c-.1-.63-.26-1.11-.34-1.07s-.07.11-.09.27a4.08 4.08 0 0 0 0 1c-.12-.2-.32-.3-.5-.18l-.14.1a5.11 5.11 0 0 0 .07-.81c0-.36-.13-.38-.34-.46s-.21-.14-.32-.33-.3-.29-.48-.19-.49.44-.74.44-.33.08-.48.4-.24.22-.28.47a1.36 1.36 0 0 0 .93 1.12 2.79 2.79 0 0 0 .58.13.53.53 0 0 0-.29.46 1.31 1.31 0 0 0 1 1.2 3.05 3.05 0 0 0 1.06.08 2.55 2.55 0 0 1 1.14.6 8.09 8.09 0 0 1 .77.78c.08.07.54.39.58.44a.3.3 0 0 0-.08.08c-.1 0-.63-.42-.77-.53a5.14 5.14 0 0 0-1.44-1.11c-.09 0-.28 0-.59.07a2 2 0 0 1-.63 0c-.12 0-.18.11-.67.28a3.38 3.38 0 0 0-1 .52c-.13.09-.05.15 0 .18a2.64 2.64 0 0 0 1.38 0 2.35 2.35 0 0 1 1.12-.43 1.39 1.39 0 0 1 1 .46.93.93 0 0 0 .65.34 2.79 2.79 0 0 1 .88.52 3.09 3.09 0 0 0 .72.47c.36.2 2.41 1.6 2.53 1.66s.26-.16.21-.22-.19-.14-.22-.2-.06-.23-.08-.28a5 5 0 0 0-.65-.39 7.5 7.5 0 0 1-.72-.48 26 26 0 0 1 3 0c.91 0 1.7-.17 2.33-.17s1.24.21 2 .21h1.59a12.43 12.43 0 0 0-.38 2.52c0 .86-.41.91-1.33 1.49a2.35 2.35 0 0 0-.88.95 8.54 8.54 0 0 0-3.08.76 11 11 0 0 1-1.69.75.22.22 0 0 1-.15 0 11.26 11.26 0 0 0-2.45-.75 5.48 5.48 0 0 0-1.68.05h-1.94l.62-.47c.19-.11.48-.31.51-.49s-1.42-.72-2.31-1.2a4.47 4.47 0 0 1-1.29-1 1.08 1.08 0 0 0 .44.91 3.57 3.57 0 0 0 1.1.67v.17A3.13 3.13 0 0 1 55 31a3.24 3.24 0 0 1-.82-.69 1.72 1.72 0 0 0 .6 1 2.5 2.5 0 0 0 1 .49v.18a2.14 2.14 0 0 1-1.42-.98s0 .32.37.72a3 3 0 0 0 1.08.64v.3a1 1 0 0 1-.57-.26 1 1 0 0 0-.56-.45c-.46-.06-.73.3-1.07.59s-.64.15-1.17.34a1.14 1.14 0 0 0-.75.94c0 .13 0 .16.75 0a3 3 0 0 1 1.6-.11 8.37 8.37 0 0 0 1.78-.12 8.66 8.66 0 0 1 2.41.47c1.52.33 4 .93 4 .95a2.58 2.58 0 0 0 1.41.22c.9-.08 1.38 0 2.49-.13a9.43 9.43 0 0 0 2.9-.66s.82.56 1.93 1.19c1.78 1 3 1.56 3 1.56a12 12 0 0 0 1 2.65 5.57 5.57 0 0 0 .78.87c.42.48.8.92 1.17 1.38h-.24a4.34 4.34 0 0 1-1.62-.2 1.11 1.11 0 0 0 .85.56 3.69 3.69 0 0 0 1.3 0l.1.14a2.47 2.47 0 0 1-.8.09 3.55 3.55 0 0 1-1.07-.18 1.73 1.73 0 0 0 1 .52 2.46 2.46 0 0 0 1.08-.06l.08.11A2.15 2.15 0 0 1 76 43s.12.31.69.44a2.17 2.17 0 0 0 1.13 0 1 1 0 0 1-.14.47c-.1.21-.28.58-.19.77.18.42.82.35 1.25.5s.45.46.89.82a1.14 1.14 0 0 0 1.19.16c.09-.11.16 0-.41-.62a2.94 2.94 0 0 1-.92-1.32c-.29-.67-.31-.51-.82-1.25a1.13 1.13 0 0 0 .18-.2s.36-.57.26-.83-.46-.1-1 0c0 0-.55-1.81-1-3a26.07 26.07 0 0 0-1-2.51 1.26 1.26 0 0 1-.07-.25 1.46 1.46 0 0 0-.27-.5c-.17-.18-.66-.56-.71-.61s-.36-.47-1.06-1.23S72 32 72 32c0-.3.14-.36.42-.68a5.33 5.33 0 0 1 .87-.78 11.15 11.15 0 0 0 2.15-1.92.2.2 0 0 1-.18-.13.77.77 0 0 1 .65-.68l.22-.06h.09c-.15-.09-.18-.19-.16-.18a2.91 2.91 0 0 0 .49.08c.21 0 .44.06.23.12s-.37.09-.87.22a.62.62 0 0 0-.52.53 2.13 2.13 0 0 0 1 .1 13 13 0 0 0 1.83-.62c.8-.12 2.13.22 3.19-.2a3.94 3.94 0 0 0 1.11-.73 2.4 2.4 0 0 0 .64-.46.43.43 0 0 0-.1-.58" transform="translate(-18.03 -18.35)"/><path d="M53.07 23.71a.76.76 0 0 0 .45-.09 1 1 0 0 1-.17-.51.61.61 0 0 1 .1-.36c0-.08.13 0 .1.07a.6.6 0 0 0 0 .3c.08.26.35.2.44 0a.8.8 0 0 0 0-.5c0-.12.09-.11.13 0s.36.7-.11 1.07a1 1 0 0 1-1 .17c-.09 0-.07-.14 0-.14m-.48.38c0 .14.22.28.52.38.09 0 0 .24.28.27a5.17 5.17 0 0 0 2.43-.38c.13-.09 0-.3-.23-.5a2.35 2.35 0 0 1-.87-1.06c-.23-.57-.47-.65-.66-.71s-.36 0-.67.22-.54.22-.7.54 0 .5 0 .7-.16.33-.11.54M75.61 43.9A13.11 13.11 0 0 1 72 45.63a.16.16 0 0 0-.1.21.17.17 0 0 0 .21.11 13.41 13.41 0 0 0 3.72-1.77.18.18 0 0 0 0-.24.17.17 0 0 0-.24 0" transform="translate(-18.03 -18.35)"/><path class="cls-2" d="M153.75 40.54c0-.11-.06-.15-.18-.15h-.21v.52h.09v-.22h.09l.14.22h.09l-.15-.23a.13.13 0 0 0 .13-.14m-.3.08v-.16h.11c.05 0 .11 0 .11.07s-.06.09-.13.09zm.09-.43a.46.46 0 0 0 0 .92.46.46 0 1 0 0-.92m0 .84a.38.38 0 1 1 .37-.38.37.37 0 0 1-.37.38M113.33 45.32v-2.93a1.74 1.74 0 0 0-.73-1.6 3.23 3.23 0 0 0-3.23.49v-.81h-.5a3.12 3.12 0 0 1-1.67.68v.33c.17 0 .63.13.66.48v3.36c0 .39-.51.55-.88.58v.38a24.82 24.82 0 0 1 3.34 0v-.38c-.37 0-.88-.27-.88-.58v-3.21a1.53 1.53 0 0 1 1.74-.67 1.08 1.08 0 0 1 .61.94v2.94c0 .39-.51.55-.89.58v.38a24.82 24.82 0 0 1 3.34 0v-.38c-.37 0-.88-.27-.88-.58m3.83.24c-.44 0-.52-.57-.52-.57v-3.83h1.26v-.51h-1.26V39.2h-.44a3.54 3.54 0 0 1-.78.91 7.46 7.46 0 0 1-1 .7v.35h.81V45a1.27 1.27 0 0 0 1.45 1.34 1.49 1.49 0 0 0 1.41-.77l-.35-.25a.62.62 0 0 1-.54.23m4.85-.25c-1.32-.11-1.61-.88-1.61-.88l3.44-2.79-.16-.28a1.21 1.21 0 0 1-.43-.2 3 3 0 0 0-2.6-.58 2.93 2.93 0 0 0 .91 5.77 3.1 3.1 0 0 0 2.28-1.18l-.26-.34a2 2 0 0 1-1.57.48m-1.89-3.1c.13-.68.29-1 .88-1.23a.94.94 0 0 1 1.11.42c.13.2.38.65.23.79l-2.15 1.71a5.15 5.15 0 0 1-.07-1.69m7.55-1.62a1.82 1.82 0 0 0-1 1.18v-1.3h-.44a3.12 3.12 0 0 1-1.67.68v.33c.17 0 .63.13.66.48v3.36c0 .39-.51.55-.88.58v.38a23.93 23.93 0 0 1 3.28 0v-.37c-.37 0-.88-.27-.88-.58v-2.64a1.29 1.29 0 0 1 .4-.87c.19-.19.52 0 .72.16a.79.79 0 0 0 .93-.28.68.68 0 0 0-.08-.85.93.93 0 0 0-1-.25m19.15 0a1.82 1.82 0 0 0-1 1.18v-1.3h-.43a3.19 3.19 0 0 1-1.68.68v.33c.17 0 .63.13.66.48v3.36c0 .39-.51.55-.88.58v.38a23.93 23.93 0 0 1 3.28 0v-.38c-.37 0-.88-.27-.88-.58v-2.64a1.29 1.29 0 0 1 .4-.87c.19-.19.52 0 .73.16a.78.78 0 0 0 .92-.28.68.68 0 0 0-.08-.85.93.93 0 0 0-1-.25M136 45.32V38.2h-.5a3.12 3.12 0 0 1-1.67.68v.33c.17 0 .63.13.66.48v5.63c0 .39-.51.55-.88.58v.38a23.93 23.93 0 0 1 3.28 0v-.38c-.37 0-.88-.27-.88-.58m-1.43-7a.87.87 0 0 0 .45-1 1.36 1.36 0 0 0-.93-.69 3.17 3.17 0 0 0-3.31 1.29c-.77.89-.63 2.18-.66 3.24h-.89v.48h.89v3.68c0 .39-.51.55-.88.58v.38a23.5 23.5 0 0 1 3.25 0v-.38c-.37 0-.88-.27-.88-.58v-3.68h1.14v-.48h-1.14a15 15 0 0 1 .24-3.41c.28-.47.5-.43.87-.43s.64.6 1 .89a.89.89 0 0 0 .84.12m5.54 2.09a3 3 0 0 0-3.12 3 3.13 3.13 0 0 0 6.25 0 2.91 2.91 0 0 0-3.13-3m0 5.44c-.93 0-1.48-1.09-1.48-2.48s.53-2.53 1.48-2.52 1.48 1.13 1.48 2.52-.51 2.48-1.48 2.48m13-.31c-.26 0-.4-.16-.4-.74v-2.93s-.05-1.48-2.16-1.48c-1.82 0-2.33 1.12-2.27 1.53a.52.52 0 0 0 .5.39c.5 0 .8-.61 1.06-1a.78.78 0 0 1 .75-.45.83.83 0 0 1 .69.8v1s-.28.11-.63.21c-.52.16-1.15.3-1.29.37a1.8 1.8 0 0 0-1.24 1.75 1.48 1.48 0 0 0 1.6 1.35 2.45 2.45 0 0 0 1.6-.71 1.46 1.46 0 0 0 1.23.73 1.51 1.51 0 0 0 1.33-1.08l-.23-.12s-.29.41-.56.42m-1.83-1.1c0 .2.15 1-.91 1-.69 0-.71-.64-.72-.9 0-1.17 1.63-1.33 1.63-1.33zm-48-7.3v.38c.37 0 .88.26.88.58v7.21c0 .39-.51.55-.88.58v.38a25.71 25.71 0 0 1 3.4 0v-.42c-.37 0-.88-.27-.88-.58V38.1c0-.38.51-.55.89-.57v-.38a27.55 27.55 0 0 1-3.4 0M140.49 29.36a.19.19 0 0 0 .17-.13 12 12 0 0 1 1.4-3.14.17.17 0 0 0-.05-.24.18.18 0 0 0-.24.06 13.75 13.75 0 0 0-1.44 3.24.17.17 0 0 0 .12.21m25.78-.6a.16.16 0 0 0-.21-.11.16.16 0 0 0-.11.21 13.23 13.23 0 0 1-1.67 11.58.16.16 0 0 0 0 .24.17.17 0 0 0 .1 0 .17.17 0 0 0 .14-.07 13.55 13.55 0 0 0 1.71-11.88m-21.54-5.88a.21.21 0 0 0 .11 0A13.25 13.25 0 0 1 159 21a.17.17 0 1 0 .15-.31 13.61 13.61 0 0 0-14.54 1.9.17.17 0 0 0 0 .24.19.19 0 0 0 .13.06M167.1 45.69c0-.11-.06-.15-.19-.15h-.2v.52h.08v-.23h.1l.13.23h.09l-.15-.23c.08 0 .14 0 .14-.14m-.31.08v-.16h.11c.06 0 .12 0 .12.07s-.06.09-.13.09zm.1-.43a.46.46 0 1 0 0 .92.46.46 0 1 0 0-.92m0 .84a.38.38 0 1 1 .37-.38.37.37 0 0 1-.37.38" transform="translate(-18.03 -18.35)"/><path class="cls-2" d="M164.55 27.09a2.41 2.41 0 0 1-1.46.26l-.44-.05h-.19a2 2 0 0 0 .9-1.26 4.48 4.48 0 0 0 1.18.38c.44.09.86.07 1 .15-.32.11-.57.34-1 .55m-3.79-2.63a6 6 0 0 1-1.08.09c-.47 0-1 .08-1.11.08s-.19-.21.31-.3a3.28 3.28 0 0 0 1.65-.67c.39-.39.27-1.19.41-1.19s-.05.82.6 1c-.65.39-.35.91-.78 1m-3.53 3.46c-1.16.67-1.14 1.2-1.19 1.31s-.51-.2-.49-.42.08-.52.18-1a2.82 2.82 0 0 1 .32-1 4.8 4.8 0 0 0 .92-.43c.27-.2.38-.66.49-.66s-.1.8.31 1.13 1.38.45 1.36.54a4.39 4.39 0 0 0-1.9.56m.81 7.84c-.09.21-.79-.2-2.48-1.25-1.48-.93-2.11-1.24-2.05-2.15a1.68 1.68 0 0 1 1.32-1.43c.27-.05.36 0 .69.2s.5.37.41.42a1.36 1.36 0 0 0-.68 1.47c.38.87 2.88 2.43 2.8 2.64M153.86 34a8.93 8.93 0 0 1-2.09.49c-1 .15-1.36.28-1.35.1s.71-.13 1.47-.53.92-.92 1.08-.94.06 0 .34.36.58.43.55.52m-12-11a.88.88 0 0 1-.91-.21c-.06-.06 0-.13.09-.09a.66.66 0 0 0 .4.07 1 1 0 0 1 0-.48.58.58 0 0 1 .21-.27c.08 0 .11 0 .07.09a.42.42 0 0 0-.11.26c0 .24.22.29.36.17a.89.89 0 0 0 .21-.41c0-.11.11-.06.11 0s.06.72-.47.85m-1.22-1.7a.9.9 0 0 1-.9-.23c-.06-.06 0-.14.09-.09a.73.73 0 0 0 .4.08 1.06 1.06 0 0 1 0-.5.81.81 0 0 1 .4-.34c.1 0 .13.07.07.09a.44.44 0 0 0-.28.35c0 .24.22.29.36.17a.77.77 0 0 0 .21-.41c0-.1.12-.06.12 0s0 .72-.49.86m27.65 4.72a9.32 9.32 0 0 0-1-.54 5.8 5.8 0 0 0-2.05-.64c-.68-.15-.5-.29-1.52-.57a4.64 4.64 0 0 0-1.34-.25c.25-.78.74-.35 1-.4s.36-.18.34-.53a1.35 1.35 0 0 1 .22-.68l.21-.08v-.12a1.6 1.6 0 0 1-.2-.48c0-.3.09-.52 0-.63-.88-.27-2.6.55-2.44.32 1.37-.93 3.12-.87 2.77-1.08s-.38-.47-1-.92a1.72 1.72 0 0 0-1.22-.25c.09-.15.31-.56.23-.77s-1.59.11-2.6.14a4.61 4.61 0 0 1-1.62-.2 1.14 1.14 0 0 0 .85.56 3.61 3.61 0 0 0 1.3 0l.1.15a2.47 2.47 0 0 1-.8.09 3.38 3.38 0 0 1-1.07-.19 1.71 1.71 0 0 0 1 .53 2.46 2.46 0 0 0 1.08-.06l.1.14a2.16 2.16 0 0 1-1.72-.08.91.91 0 0 0 .69.44 2 2 0 0 0 .87 0 1.9 1.9 0 0 0-.27.73 5.3 5.3 0 0 0-.11.62c-.15.67-.87 1.21-.77 1.28a6.88 6.88 0 0 0 1.31-.56 2.51 2.51 0 0 1-.4 1.33c-.41.51-.91.41-1.62.6a1.85 1.85 0 0 1-.74.15 3.38 3.38 0 0 0-1.25.06c-.58.16-1.26.58-1.64.67s-1.42.17-1.86.32l-.33.11a3 3 0 0 1-.7.19 1.62 1.62 0 0 1-.47 0 3.28 3.28 0 0 0-1-.12 6 6 0 0 0-1.35.25 10.39 10.39 0 0 1-1.85.44 2.56 2.56 0 0 1-1.13-.3 2.2 2.2 0 0 0-1.09.06 3.73 3.73 0 0 1-.51-.43c-.22-.26-.23-.74-.54-1.09a1.43 1.43 0 0 1-.35-1.1 2.1 2.1 0 0 0 0-.75c-.07-.35-.29-.51-.34-.49a.8.8 0 0 0 0 .6 2.82 2.82 0 0 1 0 1c0 .19.13.52.1.52a.77.77 0 0 1-.33-.54 3.22 3.22 0 0 0-.2-1.14 2.16 2.16 0 0 1-.25-.89c-.1-.63-.26-1.11-.34-1.07s-.07.11-.09.27a4.08 4.08 0 0 0 0 1c-.13-.2-.32-.3-.5-.18l-.14.1a5.11 5.11 0 0 0 .07-.81c0-.36-.13-.38-.35-.46s-.2-.14-.32-.33-.29-.29-.47-.19-.49.44-.74.44-.33.08-.48.4-.24.22-.28.47a1.36 1.36 0 0 0 .93 1.12 2.66 2.66 0 0 0 .58.13.56.56 0 0 0-.3.46 1.34 1.34 0 0 0 1 1.2 3.05 3.05 0 0 0 1.06.08 2.55 2.55 0 0 1 1.14.6 9.45 9.45 0 0 1 .77.78c.08.07.54.39.58.44a.2.2 0 0 0-.08.08c-.1 0-.63-.42-.77-.53a5.3 5.3 0 0 0-1.44-1.11c-.09 0-.28 0-.59.07a2.11 2.11 0 0 1-.64 0c-.11 0-.18.11-.66.28a3.64 3.64 0 0 0-1 .52c-.12.09 0 .15 0 .18a2.64 2.64 0 0 0 1.38 0 2.32 2.32 0 0 1 1.08-.37 1.39 1.39 0 0 1 1 .46.93.93 0 0 0 .65.34 2.87 2.87 0 0 1 .87.52 3.59 3.59 0 0 0 .72.47c.37.2 2.42 1.6 2.54 1.66s.26-.16.21-.22-.19-.14-.22-.2-.06-.23-.09-.28a4.57 4.57 0 0 0-.64-.39 7.5 7.5 0 0 1-.72-.48 26 26 0 0 1 3 0c.9 0 1.69-.17 2.33-.17s1.24.21 2 .21h1.59a12.43 12.43 0 0 0-.38 2.52c0 .86-.41.91-1.33 1.49a2.35 2.35 0 0 0-.88.95 8.58 8.58 0 0 0-3.09.76 11.33 11.33 0 0 1-1.68.75.22.22 0 0 1-.15 0 11.43 11.43 0 0 0-2.46-.75 5.43 5.43 0 0 0-1.67.05h-1.94l.62-.47c.19-.11.48-.31.51-.49s-1.43-.72-2.31-1.2a4.47 4.47 0 0 1-1.29-1 1.08 1.08 0 0 0 .44.91 3.57 3.57 0 0 0 1.1.67v.17a3.13 3.13 0 0 1-.72-.33 3.24 3.24 0 0 1-.82-.69 1.65 1.65 0 0 0 .6 1 2.5 2.5 0 0 0 1 .49v.18a2.14 2.14 0 0 1-1.43-.94s-.06.32.37.72a3 3 0 0 0 1.08.64v.3a1 1 0 0 1-.57-.26 1 1 0 0 0-.57-.45c-.45-.06-.72.3-1.06.59s-.64.15-1.17.34a1.14 1.14 0 0 0-.75.94c.05.13 0 .16.75 0a3 3 0 0 1 1.59-.11 8.42 8.42 0 0 0 1.79-.12 8.66 8.66 0 0 1 2.41.47c1.52.33 4 .93 4 .95a2.55 2.55 0 0 0 1.41.22c.89-.08 1.38 0 2.49-.13a9.43 9.43 0 0 0 2.9-.66s.82.56 1.93 1.19c1.78 1 3 1.56 3 1.56a12 12 0 0 0 1 2.65 5.57 5.57 0 0 0 .78.87c.42.48.8.92 1.17 1.38H162a4.34 4.34 0 0 1-1.62-.2 1.09 1.09 0 0 0 .85.56 3.63 3.63 0 0 0 1.29 0l.11.14a2.47 2.47 0 0 1-.8.09 3.47 3.47 0 0 1-1.07-.18 1.68 1.68 0 0 0 1 .52 2.43 2.43 0 0 0 1.08-.06l.09.11a2.15 2.15 0 0 1-1.71-.09s.12.31.69.44a2.17 2.17 0 0 0 1.13 0 1 1 0 0 1-.14.47c-.1.21-.28.58-.19.77.18.42.82.35 1.25.5s.45.46.89.82a1.14 1.14 0 0 0 1.19.16c.09-.11.16 0-.41-.62a2.94 2.94 0 0 1-.92-1.32 5.41 5.41 0 0 0-.82-1.25.81.81 0 0 0 .17-.2s.37-.57.27-.83-.47-.1-1 0c0 0-.56-1.81-1-3s-1-2.46-1-2.51a2.5 2.5 0 0 1-.08-.25 1.24 1.24 0 0 0-.26-.5c-.17-.18-.66-.56-.71-.61s-.36-.47-1.06-1.23-2-1.83-2-1.83c0-.3.14-.36.41-.68a5.36 5.36 0 0 1 .88-.78 11.15 11.15 0 0 0 2.15-1.92.31.31 0 0 1-.19-.13v-.08a.76.76 0 0 1 .64-.68l.23-.06h.08c-.14-.09-.17-.19-.15-.18a2.91 2.91 0 0 0 .49.08c.21 0 .44.06.23.12s-.37.09-.87.22a.62.62 0 0 0-.52.53 2.07 2.07 0 0 0 1 .1 13.12 13.12 0 0 0 1.75-.44c.8-.12 2.12.22 3.19-.2a3.84 3.84 0 0 0 1.1-.73 2.32 2.32 0 0 0 .65-.46.43.43 0 0 0-.1-.58" transform="translate(-18.03 -18.35)"/><path class="cls-2" d="M138.27 23.71a.76.76 0 0 0 .45-.09 1 1 0 0 1-.17-.51.69.69 0 0 1 .09-.36c.06-.08.14 0 .11.07a.6.6 0 0 0 0 .3c.08.26.35.2.44 0a.88.88 0 0 0 0-.5c0-.12.09-.11.13 0s.36.7-.12 1.07a1 1 0 0 1-1 .17c-.09 0-.08-.14 0-.14m-.48.38c0 .14.21.28.52.38.09 0 0 .24.28.27a5.17 5.17 0 0 0 2.43-.38c.13-.09 0-.3-.23-.5a2.35 2.35 0 0 1-.87-1.06c-.23-.57-.47-.65-.66-.71a.71.71 0 0 0-.67.22c-.29.23-.54.22-.7.54s0 .5 0 .7-.15.33-.1.54M160.81 43.9a13.25 13.25 0 0 1-3.64 1.73.15.15 0 0 0-.1.21.16.16 0 0 0 .21.11 13.41 13.41 0 0 0 3.72-1.77.18.18 0 0 0 .05-.24.17.17 0 0 0-.24 0" transform="translate(-18.03 -18.35)"/><path d="M33.18 72.05l.26.23a1.51 1.51 0 0 1-1 .43 1.35 1.35 0 0 1-1-.4 1.36 1.36 0 0 1 1-2.31 1.47 1.47 0 0 1 1 .43l-.26.23a1.1 1.1 0 0 0-.74-.31 1 1 0 0 0-.71.29 1 1 0 0 0-.29.71 1 1 0 0 0 .29.72 1 1 0 0 0 .71.29 1.1 1.1 0 0 0 .74-.31zM36.43 71.58v1.1h-.35V70h.35v1.21h.82V70h.34v2.65h-.34v-1.1zM42.59 70.39a1.34 1.34 0 1 1-1-.4 1.31 1.31 0 0 1 1 .4zm-1 0a1 1 0 0 0-.71.3 1 1 0 0 0 0 1.42 1 1 0 0 0 1.43 0 1 1 0 0 0 0-1.42 1 1 0 0 0-.68-.35zM47.73 72.05l.26.23a1.49 1.49 0 0 1-1 .43 1.31 1.31 0 0 1-1-.4A1.36 1.36 0 0 1 47 70a1.45 1.45 0 0 1 1 .43l-.26.23a1.08 1.08 0 0 0-.74-.31 1 1 0 0 0-.71.29 1 1 0 0 0-.29.71 1 1 0 0 0 1 1 1.08 1.08 0 0 0 .73-.3zM52.91 70.39a1.35 1.35 0 0 1 0 1.92 1.31 1.31 0 0 1-1 .4A1.36 1.36 0 0 1 52 70a1.31 1.31 0 0 1 .91.39zm-1 0a1 1 0 0 0-.71 1.72 1 1 0 0 0 .71.3 1 1 0 1 0 0-2zM56 72.68V70h.34v2.3h.95v.35zM60.91 70l1 2.65h-.36l-.35-.94h-.7l-.34.94h-.36l1-2.65zm.09 1.4l-.23-.62-.22.62zM65.11 70.37v2.31h-.34v-2.31h-.62V70h1.58v.34zM69 71.32a1 1 0 0 1-.45-.27.58.58 0 0 1-.18-.43.62.62 0 0 1 1.06-.44.79.79 0 0 1 .17.32l-.31.12a.71.71 0 0 0-.1-.2.29.29 0 0 0-.4 0 .28.28 0 0 0-.08.2.27.27 0 0 0 .08.19A1.06 1.06 0 0 0 69 71a1.17 1.17 0 0 1 .52.32.8.8 0 0 1 0 1.16.8.8 0 0 1-1.16 0 1 1 0 0 1-.25-.53l.34-.12a.68.68 0 0 0 .15.41.44.44 0 0 0 .34.14.42.42 0 0 0 .34-.14.45.45 0 0 0 .15-.34.47.47 0 0 0-.15-.35.93.93 0 0 0-.28-.23zM37 83.39h-4.7a.15.15 0 0 1-.14-.15v-8a.44.44 0 0 0-.44-.44h-.09a.44.44 0 0 0-.44.44v8.65a.44.44 0 0 0 .44.44H37a.44.44 0 0 0 .44-.46.44.44 0 0 0-.44-.48zM42.79 74.7a4.83 4.83 0 1 0 5 4.83 4.78 4.78 0 0 0-5-4.83zm4 4.83a4 4 0 1 1-4-3.92 3.86 3.86 0 0 1 3.97 3.92zM57 74.76h-.08a.44.44 0 0 0-.44.44v5c0 2.15-1 3.24-2.88 3.24s-2.89-1.09-2.89-3.24v-5a.44.44 0 0 0-.43-.44h-.09a.44.44 0 0 0-.44.44v5c0 2.62 1.4 4.12 3.84 4.12s3.85-1.5 3.85-4.12v-5a.44.44 0 0 0-.44-.44z" transform="translate(-18.03 -18.35)"/><rect x="42.21" y="56.41" width=".97" height="9.53" rx=".44"/><path d="M67 79.12c-1.38-.34-2.57-.63-2.57-1.84s.92-1.7 2.45-1.7a4.47 4.47 0 0 1 2.2.59.4.4 0 0 0 .34 0 .42.42 0 0 0 .27-.25.44.44 0 0 0-.17-.56 5.28 5.28 0 0 0-2.64-.7c-2.52 0-3.42 1.34-3.42 2.6 0 1.9 1.71 2.32 3.22 2.69s2.55.62 2.55 1.82c0 1-.94 1.66-2.52 1.66a4.4 4.4 0 0 1-2.7-.9.46.46 0 0 0-.36-.09.44.44 0 0 0-.3.2.46.46 0 0 0 .09.56 5 5 0 0 0 3.28 1.11c1.61 0 3.47-.67 3.47-2.58s-1.71-2.25-3.19-2.61zM60.81 64.32a.14.14 0 0 0-.18-.1L54.06 66a3.92 3.92 0 0 0-.23-.6l4.94-2.87a.15.15 0 0 0-.15-.25l-4.94 2.86a3.31 3.31 0 0 0-.38-.52l4.48-4.52a.13.13 0 0 0 0-.2.14.14 0 0 0-.21 0l-4.48 4.51a3.14 3.14 0 0 0-.51-.39l3.49-6a.15.15 0 1 0-.25-.15l-3.49 6a3.67 3.67 0 0 0-.61-.23l1.57-5.88a.14.14 0 0 0-.1-.18.15.15 0 0 0-.18.11l-1.57 5.88a3.08 3.08 0 0 0-.61-.06v-7a.15.15 0 0 0-.14-.15.15.15 0 0 0-.15.15v7a4.26 4.26 0 0 0-.62.13l-1.62-5.85a.15.15 0 0 0-.18-.11.15.15 0 0 0-.1.18l1.59 5.89a3.45 3.45 0 0 0-.54.28l-3.57-6.19a.15.15 0 0 0-.2-.05.15.15 0 0 0-.06.2l3.59 6.21a2.47 2.47 0 0 0-.45.4l-4.74-4.69a.14.14 0 0 0-.2.2l4.75 4.72a2.85 2.85 0 0 0-.31.46l-5.17-3a.15.15 0 0 0-.2.05.15.15 0 0 0 .06.2l5.18 3a4.27 4.27 0 0 0-.18.54l-6.85-1.87a.15.15 0 0 0-.18.11.15.15 0 0 0 .1.18l6.88 1.86a3.31 3.31 0 0 0-.05.55h.29a3.07 3.07 0 1 1 6.13 0h.29a3.21 3.21 0 0 0-.06-.63l6.59-1.8a.15.15 0 0 0 .1-.16z" transform="translate(-18.03 -18.35)"/><path d="M52.64 66.93h-.29a1.52 1.52 0 1 0-3 0H49a1.82 1.82 0 1 1 3.63 0z" transform="translate(-18.03 -18.35)"/><path d="M60.35 67.22H41a.15.15 0 0 1-.14-.15.14.14 0 0 1 .14-.14h19.35a.15.15 0 0 1 .15.14.15.15 0 0 1-.15.15z" transform="translate(-18.03 -18.35)"/><path class="cls-3" d="M118.38 72.05l.25.23a1.47 1.47 0 0 1-1 .43 1.35 1.35 0 0 1-1-.4 1.36 1.36 0 0 1 1-2.31 1.43 1.43 0 0 1 1 .43l-.25.23a1.1 1.1 0 0 0-.74-.31 1 1 0 0 0-.71.29 1 1 0 0 0-.3.71 1 1 0 0 0 1 1 1.1 1.1 0 0 0 .75-.3zM121.63 71.58v1.1h-.35V70h.35v1.21h.81V70h.35v2.65h-.35v-1.1zM127.79 70.39a1.36 1.36 0 0 1-1 2.32 1.36 1.36 0 0 1 0-2.72 1.31 1.31 0 0 1 1 .4zm-1 0a1 1 0 0 0-.71.3 1 1 0 0 0 0 1.42 1 1 0 0 0 .71.3 1 1 0 1 0 0-2zM132.93 72.05l.26.23a1.51 1.51 0 0 1-1 .43 1.31 1.31 0 0 1-.95-.4 1.36 1.36 0 0 1 .95-2.31 1.47 1.47 0 0 1 1 .43l-.26.23a1.1 1.1 0 0 0-.74-.31 1 1 0 0 0-.71.29 1 1 0 0 0-.29.71 1 1 0 0 0 .29.72 1 1 0 0 0 .71.29 1.1 1.1 0 0 0 .74-.31zM138.11 70.39a1.35 1.35 0 1 1-1-.4 1.35 1.35 0 0 1 1 .4zm-1 0a1 1 0 1 0 .71.3.94.94 0 0 0-.67-.35zM141.2 72.68V70h.34v2.3h1v.35zM146.11 70l1 2.65h-.37l-.34-.94h-.7l-.34.94H145l1-2.65zm.13 1.37l-.23-.62-.22.62zM150.31 70.37v2.31H150v-2.31h-.62V70h1.58v.34zM154.17 71.32a1.1 1.1 0 0 1-.46-.27.61.61 0 0 1-.17-.43.62.62 0 0 1 1.06-.44.79.79 0 0 1 .17.32l-.31.12a.71.71 0 0 0-.1-.2.29.29 0 0 0-.4 0 .28.28 0 0 0-.08.2.27.27 0 0 0 .08.19 1 1 0 0 0 .25.17 1.15 1.15 0 0 1 .53.32.82.82 0 1 1-1.16 1.16.91.91 0 0 1-.25-.53l.33-.12a.68.68 0 0 0 .16.41.48.48 0 0 0 .82-.34.46.46 0 0 0-.14-.35.93.93 0 0 0-.33-.21zM122.23 83.39h-4.73a.15.15 0 0 1-.14-.15v-8a.44.44 0 0 0-.44-.44h-.09a.44.44 0 0 0-.44.44v8.65a.44.44 0 0 0 .44.44h5.4a.45.45 0 0 0 .44-.46.44.44 0 0 0-.44-.48zM128 74.7a4.83 4.83 0 1 0 4.94 4.83A4.78 4.78 0 0 0 128 74.7zm4 4.83a4 4 0 1 1-4-3.92 3.86 3.86 0 0 1 4 3.92zM142.15 74.76h-.09a.44.44 0 0 0-.43.44v5c0 2.15-1 3.24-2.88 3.24s-2.89-1.09-2.89-3.24v-5a.44.44 0 0 0-.44-.44h-.08a.44.44 0 0 0-.44.44v5c0 2.62 1.4 4.12 3.84 4.12s3.85-1.5 3.85-4.12v-5a.44.44 0 0 0-.44-.44z" transform="translate(-18.03 -18.35)"/><rect class="cls-3" x="127.4" y="56.41" width=".97" height="9.53" rx=".44"/><path class="cls-3" d="M152.17 79.12c-1.37-.34-2.56-.63-2.56-1.84s.92-1.7 2.45-1.7a4.47 4.47 0 0 1 2.2.59.4.4 0 0 0 .34 0 .44.44 0 0 0 .27-.25.44.44 0 0 0-.17-.56 5.3 5.3 0 0 0-2.64-.7c-2.52 0-3.42 1.34-3.42 2.6 0 1.9 1.71 2.32 3.22 2.69s2.55.62 2.55 1.82c0 1-.94 1.66-2.52 1.66a4.4 4.4 0 0 1-2.7-.9.46.46 0 0 0-.36-.09.43.43 0 0 0-.21.76 5 5 0 0 0 3.28 1.11c1.6 0 3.47-.67 3.47-2.58s-1.7-2.25-3.2-2.61zM146 64.32a.14.14 0 0 0-.18-.1L139.25 66a2.57 2.57 0 0 0-.23-.6l4.98-2.86a.15.15 0 0 0-.15-.25l-4.94 2.86a2.83 2.83 0 0 0-.39-.52l4.48-4.52a.13.13 0 0 0 0-.2.15.15 0 0 0-.21 0l-4.48 4.51a3.14 3.14 0 0 0-.51-.39l3.49-6a.15.15 0 0 0-.06-.2.15.15 0 0 0-.2.05l-3.48 6a4 4 0 0 0-.61-.23l1.57-5.88a.14.14 0 0 0-.1-.18.15.15 0 0 0-.18.11l-1.57 5.88a3.18 3.18 0 0 0-.62-.06v-7a.15.15 0 0 0-.14-.15.15.15 0 0 0-.15.15v7a4.4 4.4 0 0 0-.63.13l-1.58-5.87a.15.15 0 0 0-.18-.11.15.15 0 0 0-.1.18l1.59 5.89a3.45 3.45 0 0 0-.54.28l-3.57-6.19a.15.15 0 0 0-.2-.05.15.15 0 0 0-.06.2L134 64.2a2.93 2.93 0 0 0-.46.4l-4.73-4.69a.14.14 0 0 0-.2.2l4.75 4.72a2.85 2.85 0 0 0-.31.46l-5.17-3a.15.15 0 0 0-.2.05.15.15 0 0 0 .06.2l5.18 3a4.27 4.27 0 0 0-.18.54l-6.85-1.87a.15.15 0 0 0-.18.11.15.15 0 0 0 .1.18l6.87 1.86a4.91 4.91 0 0 0 0 .55h.32a3.07 3.07 0 1 1 6.13 0h.29a3.21 3.21 0 0 0-.06-.63l6.58-1.8a.15.15 0 0 0 .06-.16z" transform="translate(-18.03 -18.35)"/><path class="cls-3" d="M137.84 66.93h-.3a1.52 1.52 0 1 0-3 0h-.29a1.82 1.82 0 1 1 3.63 0z" transform="translate(-18.03 -18.35)"/><path class="cls-3" d="M145.55 67.22h-19.39a.15.15 0 0 1-.15-.15.15.15 0 0 1 .15-.14h19.39a.15.15 0 0 1 .15.14.15.15 0 0 1-.15.15z" transform="translate(-18.03 -18.35)"/><path d="M31.35 118.92a1.4 1.4 0 1 0 0 2.79 1.64 1.64 0 0 0 1.11-.47l.39.45a2.26 2.26 0 0 1-1.53.65 2 2 0 1 1 0-4 2.21 2.21 0 0 1 1.51.62l-.39.48a1.57 1.57 0 0 0-1.09-.52zM36.08 121.41h-2l-.38.9H33l1.75-4h.69l1.73 4h-.71zm-.26-.59l-.75-1.77-.75 1.77zM41.38 120.32a2 2 0 0 1-2.07 2H37.7v-4h1.63a2 2 0 0 1 2.05 2zm-.68 0a1.35 1.35 0 0 0-1.38-1.39h-1v2.77h1a1.32 1.32 0 0 0 1.38-1.37zM44.93 118.34v.6h-2.17V120h1.94v.59h-1.94v1.1H45v.6h-2.91v-4zM48.38 121.41h-2l-.38.9h-.7l1.75-4h.69l1.73 4h-.71zm-.26-.59l-.74-1.77-.75 1.77zM51.55 121.74a1 1 0 0 0 1.05-1.07v-2.33h.67v2.33a1.73 1.73 0 0 1-3.46 0v-2.33h.67v2.33a1 1 0 0 0 1.07 1.07zM54.67 118.34l1 1.38 1-1.38h.78l-1.33 1.91 1.44 2.06h-.8l-1.07-1.5-1.07 1.5h-.78l1.45-2-1.35-1.93zM58.77 121.88a.45.45 0 0 1-.47.47.47.47 0 1 1 .47-.47zM62.69 118.87l-.15.18a1.83 1.83 0 0 0-1.24-.48 1.76 1.76 0 1 0 0 3.51 1.85 1.85 0 0 0 1.24-.48l.15.17a2.08 2.08 0 0 1-1.4.55 2 2 0 1 1 0-4 2.11 2.11 0 0 1 1.4.55zM67.24 120.32a2.06 2.06 0 1 1-2.06-2 2 2 0 0 1 2.06 2zm-3.87 0a1.81 1.81 0 1 0 1.81-1.75 1.79 1.79 0 0 0-1.81 1.75zM71.79 122.31v-3.64l-1.63 3.21H70l-1.64-3.21v3.64h-.22v-4h.33l1.59 3.11 1.58-3.11H72v4zM46.05 95.09a2.56 2.56 0 0 0-3.3-.24 2.53 2.53 0 0 0 .35 3.46c2.18 2 7.67 3.28 7.67 3.28a60.56 60.56 0 0 0-4.72-6.5zm-2.34.91a1.54 1.54 0 0 1 2 .14 35.69 35.69 0 0 1 2.75 3.86s-3.25-.77-4.54-1.94a1.51 1.51 0 0 1-.21-2.06z" transform="translate(-18.03 -18.35)"/><path d="M58.52 94.92a2.57 2.57 0 0 0-3.31.21 60 60 0 0 0-4.77 6.46s5.49-1.26 7.69-3.22a2.53 2.53 0 0 0 .39-3.45zm-1.07 3.21c-1.54 1.38-5.41 2.26-5.41 2.26a43.64 43.64 0 0 1 3.35-4.54 1.81 1.81 0 0 1 2.33-.15 1.79 1.79 0 0 1-.27 2.43z" transform="translate(-18.03 -18.35)"/><path transform="rotate(.24 4422.077 -4206.19)" d="M40.87 105.11h19.47v10.83H40.87z"/><path class="cls-4" transform="rotate(.24 4422.077 -4206.19)" d="M49.18 106.04h2.84v9.9h-2.84z"/><path class="cls-5" d="M33.99 92.15l.02-4.46-2.84-.01-.03 7.3 2.85-2.83z"/><path class="cls-6" transform="rotate(.24 4422.067 -4210.964)" d="M40.89 104.94h19.47v1.92H40.89z"/><path transform="rotate(.24 4422.062 -4213.352)" d="M39.91 101.37h21.44v4.67H39.91z"/><path class="cls-4" d="M21.89 82.97l-.02 4.67 7.06.03 4.7-4.65-11.74-.05z"/><path class="cls-7" d="M131.25 95.09a2.57 2.57 0 0 0-3.31-.24 2.55 2.55 0 0 0 .36 3.46c2.18 2 7.66 3.28 7.66 3.28a61.55 61.55 0 0 0-4.71-6.5m-2.34.93a1.54 1.54 0 0 1 2 .14 35.69 35.69 0 0 1 2.79 3.85s-3.25-.77-4.54-1.94a1.51 1.51 0 0 1-.21-2" transform="translate(-18.03 -18.35)"/><path class="cls-7" d="M143.71 94.92a2.57 2.57 0 0 0-3.31.21 61 61 0 0 0-4.76 6.46s5.49-1.26 7.69-3.22a2.53 2.53 0 0 0 .38-3.45m-1.06 3.21c-1.55 1.38-5.41 2.26-5.41 2.26a43.64 43.64 0 0 1 3.35-4.54 1.81 1.81 0 0 1 2.33-.15 1.79 1.79 0 0 1-.27 2.43" transform="translate(-18.03 -18.35)"/><path class="cls-7" transform="rotate(-89.77 117.563 110.402)" d="M130.39 100.79h10.83v19.47h-10.83z"/><path class="cls-8" transform="rotate(-89.76 117.578 110.867)" d="M130.85 109.57h9.9v2.84h-9.9z"/><g class="cls-9"><g class="cls-10"><path class="cls-11" d="M119.19 92.15l.02-4.46-2.84-.01-.03 7.3 2.85-2.83z"/></g></g><g class="cls-12"><path transform="rotate(-89.77 117.578 105.777)" d="M134.86 96.16h1.92v19.47h-1.92z" class="cls-13"/></g><path class="cls-7" transform="rotate(-89.76 117.608 103.577)" d="M133.49 92.99h4.67v21.44h-4.67z"/><g class="cls-9"><g class="cls-14"><path class="cls-15" d="M107.09 82.97l-.02 4.67 7.06.03 4.69-4.65-11.73-.05z"/></g></g><path class="cls-16" d="M116.55 118.92a1.4 1.4 0 1 0 0 2.79 1.66 1.66 0 0 0 1.11-.47l.39.45a2.26 2.26 0 0 1-1.53.65 2 2 0 1 1 0-4 2.21 2.21 0 0 1 1.51.62l-.39.48a1.57 1.57 0 0 0-1.09-.52zM121.27 121.41h-2l-.38.9h-.7l1.76-4h.68l1.74 4h-.72zm-.25-.59l-.75-1.77-.75 1.77zM126.58 120.32a2 2 0 0 1-2.07 2h-1.61v-4h1.62a2 2 0 0 1 2.06 2zm-.68 0a1.35 1.35 0 0 0-1.39-1.39h-.94v2.77h1a1.33 1.33 0 0 0 1.33-1.37zM130.13 118.34v.6H128V120h1.94v.59H128v1.1h2.24v.6h-2.91v-4zM133.58 121.41h-2l-.38.9h-.7l1.75-4h.69l1.73 4H134zm-.26-.59l-.75-1.77-.74 1.77zM136.75 121.74a1 1 0 0 0 1.05-1.07v-2.33h.67v2.33a1.73 1.73 0 0 1-3.46 0v-2.33h.67v2.33a1 1 0 0 0 1.07 1.07zM139.87 118.34l1 1.38 1-1.38h.79l-1.34 1.91 1.45 2.06h-.8l-1.07-1.5-1.07 1.5H139l1.45-2-1.35-1.93z" transform="translate(-18.03 -18.35)"/><path class="cls-7" d="M144 121.88a.45.45 0 0 1-.47.47.47.47 0 1 1 .47-.47z" transform="translate(-18.03 -18.35)"/><path class="cls-16" d="M147.89 118.87l-.15.18a1.85 1.85 0 0 0-1.24-.48 1.76 1.76 0 1 0 0 3.51 1.85 1.85 0 0 0 1.24-.48l.15.17a2.08 2.08 0 0 1-1.4.55 2 2 0 1 1 0-4 2.11 2.11 0 0 1 1.4.55zM152.43 120.32a2.05 2.05 0 1 1-2.05-2 2 2 0 0 1 2.05 2zm-3.86 0a1.81 1.81 0 1 0 1.81-1.75 1.79 1.79 0 0 0-1.81 1.75zM157 122.31v-3.64l-1.63 3.21h-.11l-1.64-3.21v3.64h-.22v-4h.33l1.59 3.11 1.58-3.11h.33v4z" transform="translate(-18.03 -18.35)"/></svg>